<?xml version="1.0" encoding="UTF-8" standalone="no"?>
<!DOCTYPE svg PUBLIC "-//W3C//DTD SVG 1.1//EN"
 "http://www.w3.org/Graphics/SVG/1.1/DTD/svg11.dtd">
<!-- Generated by graphviz version 2.38.0 (20140413.2041)
 -->
<!-- Title: %115 Pages: 1 -->
<svg width="894pt" height="743pt"
 viewBox="0.00 0.00 893.98 743.12" xmlns="http://www.w3.org/2000/svg" xmlns:xlink="http://www.w3.org/1999/xlink">
<g id="graph0" class="graph" transform="scale(1 1) rotate(0) translate(4 739.116)">
<title>%115</title>
<polygon fill="white" stroke="none" points="-4,4 -4,-739.116 889.976,-739.116 889.976,4 -4,4"/>
<!-- 1671 -->
<g id="node1" class="node"><title>1671</title>
<g id="a_node1"><a xlink:title="Van een uit te voeren onderzoek wordt o.a. vastgelegd: type onderzoek, te gebruiken methodiek, materialen, kosten, doorlooptijd.&#10;&#10;E.g. labaanvragen.&#10;Referentie tabel item&#10;Onderzoeksprofiel&#10;Beschrjiving van het type onderzoek ">
<path fill="salmon" stroke="black" d="M703.877,-382.231C703.877,-382.231 641.877,-382.231 641.877,-382.231 635.877,-382.231 629.877,-376.231 629.877,-370.231 629.877,-370.231 629.877,-358.231 629.877,-358.231 629.877,-352.231 635.877,-346.231 641.877,-346.231 641.877,-346.231 703.877,-346.231 703.877,-346.231 709.877,-346.231 715.877,-352.231 715.877,-358.231 715.877,-358.231 715.877,-370.231 715.877,-370.231 715.877,-376.231 709.877,-382.231 703.877,-382.231"/>
<text text-anchor="middle" x="672.877" y="-360.531" font-family="Roboto" font-size="14.00">Onderzoek</text>
</a>
</g>
</g>
<!-- 1811 -->
<g id="node4" class="node"><title>1811</title>
<g id="a_node4"><a xlink:title="Een order is synoniem voor een aanvraag van iets (een activiteit). ">
<path fill="salmon" stroke="black" d="M238.66,-456.357C238.66,-456.357 208.66,-456.357 208.66,-456.357 202.66,-456.357 196.66,-450.357 196.66,-444.357 196.66,-444.357 196.66,-432.357 196.66,-432.357 196.66,-426.357 202.66,-420.357 208.66,-420.357 208.66,-420.357 238.66,-420.357 238.66,-420.357 244.66,-420.357 250.66,-426.357 250.66,-432.357 250.66,-432.357 250.66,-444.357 250.66,-444.357 250.66,-450.357 244.66,-456.357 238.66,-456.357"/>
<text text-anchor="middle" x="223.66" y="-434.657" font-family="Roboto" font-size="14.00">Order</text>
</a>
</g>
</g>
<!-- 1671&#45;&gt;1811 -->
<g id="edge2" class="edge"><title>1671&#45;&gt;1811</title>
<path fill="none" stroke="blue" d="M629.804,-371.339C541.881,-385.847 343.11,-418.646 260.619,-432.258"/>
<polygon fill="none" stroke="blue" points="259.987,-428.815 250.69,-433.897 261.127,-435.722 259.987,-428.815"/>
</g>
<!-- 1714 -->
<g id="node2" class="node"><title>1714</title>
<g id="a_node2"><a xlink:title="Informatie over de uit te voeren operatie (o.a. omschrijving, type, operateur, vereiste opname, vereiste conditie van pati?nt bijv. nuchter ja/nee, benodigde bloedproducten etc.) synoniem: ingreep ">
<path fill="salmon" stroke="black" d="M230.248,-696.034C230.248,-696.034 183.248,-696.034 183.248,-696.034 177.248,-696.034 171.248,-690.034 171.248,-684.034 171.248,-684.034 171.248,-672.034 171.248,-672.034 171.248,-666.034 177.248,-660.034 183.248,-660.034 183.248,-660.034 230.248,-660.034 230.248,-660.034 236.248,-660.034 242.248,-666.034 242.248,-672.034 242.248,-672.034 242.248,-684.034 242.248,-684.034 242.248,-690.034 236.248,-696.034 230.248,-696.034"/>
<text text-anchor="middle" x="206.748" y="-674.334" font-family="Roboto" font-size="14.00">Operatie</text>
</a>
</g>
</g>
<!-- 2161 -->
<g id="node11" class="node"><title>2161</title>
<g id="a_node11"><a xlink:title=" ">
<path fill="salmon" stroke="black" d="M247.991,-581.743C247.991,-581.743 174.991,-581.743 174.991,-581.743 168.991,-581.743 162.991,-575.743 162.991,-569.743 162.991,-569.743 162.991,-557.743 162.991,-557.743 162.991,-551.743 168.991,-545.743 174.991,-545.743 174.991,-545.743 247.991,-545.743 247.991,-545.743 253.991,-545.743 259.991,-551.743 259.991,-557.743 259.991,-557.743 259.991,-569.743 259.991,-569.743 259.991,-575.743 253.991,-581.743 247.991,-581.743"/>
<text text-anchor="middle" x="211.491" y="-560.043" font-family="Roboto" font-size="14.00">Behandeling</text>
</a>
</g>
</g>
<!-- 1714&#45;&gt;2161 -->
<g id="edge1" class="edge"><title>1714&#45;&gt;2161</title>
<path fill="none" stroke="blue" d="M207.499,-659.924C208.259,-641.616 209.444,-613.07 210.325,-591.825"/>
<polygon fill="none" stroke="blue" points="213.825,-591.904 210.743,-581.768 206.831,-591.614 213.825,-591.904"/>
</g>
<!-- 1718 -->
<g id="node3" class="node"><title>1718</title>
<g id="a_node3"><a xlink:title=" ">
<path fill="salmon" stroke="black" d="M687.037,-474.039C687.037,-474.039 623.037,-474.039 623.037,-474.039 617.037,-474.039 611.037,-468.039 611.037,-462.039 611.037,-462.039 611.037,-450.039 611.037,-450.039 611.037,-444.039 617.037,-438.039 623.037,-438.039 623.037,-438.039 687.037,-438.039 687.037,-438.039 693.037,-438.039 699.037,-444.039 699.037,-450.039 699.037,-450.039 699.037,-462.039 699.037,-462.039 699.037,-468.039 693.037,-474.039 687.037,-474.039"/>
<text text-anchor="middle" x="655.037" y="-452.339" font-family="Roboto" font-size="14.00">Verzorging</text>
</a>
</g>
</g>
<!-- 1718&#45;&gt;1811 -->
<g id="edge3" class="edge"><title>1718&#45;&gt;1811</title>
<path fill="none" stroke="blue" d="M610.9,-454.23C525.717,-450.738 340.075,-443.129 260.776,-439.878"/>
<polygon fill="none" stroke="blue" points="260.892,-436.38 250.757,-439.468 260.605,-443.374 260.892,-436.38"/>
</g>
<!-- 2171 -->
<g id="node13" class="node"><title>2171</title>
<g id="a_node13"><a xlink:title="Er zijn 2 soorten activiteiten, namelijk georderde en niet pers? geordered. ">
<path fill="salmon" stroke="black" d="M308.935,-370.777C308.935,-370.777 259.935,-370.777 259.935,-370.777 253.935,-370.777 247.935,-364.777 247.935,-358.777 247.935,-358.777 247.935,-346.777 247.935,-346.777 247.935,-340.777 253.935,-334.777 259.935,-334.777 259.935,-334.777 308.935,-334.777 308.935,-334.777 314.935,-334.777 320.935,-340.777 320.935,-346.777 320.935,-346.777 320.935,-358.777 320.935,-358.777 320.935,-364.777 314.935,-370.777 308.935,-370.777"/>
<text text-anchor="middle" x="284.435" y="-349.077" font-family="Roboto" font-size="14.00">Activiteit</text>
</a>
</g>
</g>
<!-- 1811&#45;&gt;2171 -->
<g id="edge12" class="edge"><title>1811&#45;&gt;2171</title>
<path fill="none" stroke="blue" d="M236.549,-420.208C245.009,-408.294 256.215,-392.515 265.659,-379.216"/>
<polygon fill="none" stroke="blue" points="268.628,-381.08 271.565,-370.9 262.921,-377.027 268.628,-381.08"/>
</g>
<!-- 1968 -->
<g id="node19" class="node"><title>1968</title>
<g id="a_node19"><a xlink:title="Het plan tot het verlichten of wegnemen van gezondheidsklachten en gebreken volgens een bepaalde methode of inzicht met een vooropgezet doel.&#10;De invulling hiervan is specialisme&#45;specifiek, maar kan wel over meerdere disciplines en specialismen heen gaan.&#10;&#10;Inclusief behandeldoel, behandelinformatie en instructie, e.g. patient moet 12 uur van tevoren niet gegeten hebben.&#10;&#10;&#10; ">
<path fill="green" stroke="black" d="M628.863,-272.838C628.863,-272.838 548.863,-272.838 548.863,-272.838 542.863,-272.838 536.863,-266.838 536.863,-260.838 536.863,-260.838 536.863,-248.838 536.863,-248.838 536.863,-242.838 542.863,-236.838 548.863,-236.838 548.863,-236.838 628.863,-236.838 628.863,-236.838 634.863,-236.838 640.863,-242.838 640.863,-248.838 640.863,-248.838 640.863,-260.838 640.863,-260.838 640.863,-266.838 634.863,-272.838 628.863,-272.838"/>
<text text-anchor="middle" x="588.863" y="-251.138" font-family="Roboto" font-size="14.00">Behandelplan</text>
</a>
</g>
</g>
<!-- 1811&#45;&gt;1968 -->
<g id="edge30" class="edge"><title>1811&#45;&gt;1968</title>
<path fill="none" stroke="green" d="M250.983,-431.138C307.024,-415.506 437.635,-374.787 531.987,-311.878 544.37,-303.622 556.286,-292.373 565.984,-282.046"/>
<polygon fill="none" stroke="green" points="566.172,-281.838 567.226,-274.704 574.217,-272.933 573.163,-280.067 566.172,-281.838"/>
</g>
<!-- 1841 -->
<g id="node5" class="node"><title>1841</title>
<g id="a_node5"><a xlink:title="Verzoek tot opinie of advies van een collega/zorgverlener inzake diagnose of behandeling en terugrapportage van bevindingen. ">
<path fill="salmon" stroke="black" d="M655.444,-551.254C655.444,-551.254 546.444,-551.254 546.444,-551.254 540.444,-551.254 534.444,-545.254 534.444,-539.254 534.444,-539.254 534.444,-527.254 534.444,-527.254 534.444,-521.254 540.444,-515.254 546.444,-515.254 546.444,-515.254 655.444,-515.254 655.444,-515.254 661.444,-515.254 667.444,-521.254 667.444,-527.254 667.444,-527.254 667.444,-539.254 667.444,-539.254 667.444,-545.254 661.444,-551.254 655.444,-551.254"/>
<text text-anchor="middle" x="600.944" y="-529.554" font-family="Roboto" font-size="14.00">Collegiaal Consult</text>
</a>
</g>
</g>
<!-- 1841&#45;&gt;1811 -->
<g id="edge4" class="edge"><title>1841&#45;&gt;1811</title>
<path fill="none" stroke="blue" d="M534.362,-516.507C454.807,-496.497 324.498,-463.72 260.911,-447.727"/>
<polygon fill="none" stroke="blue" points="261.484,-444.262 250.932,-445.217 259.776,-451.05 261.484,-444.262"/>
</g>
<!-- 1842 -->
<g id="node6" class="node"><title>1842</title>
<g id="a_node6"><a xlink:title="Bevat alle informatie mbt de aanvraag en planning van het onderzoek. Dus inclusief type onderzoek.&#10;Zie Onderzoek. ">
<path fill="salmon" stroke="black" d="M873.976,-403.301C873.976,-403.301 735.976,-403.301 735.976,-403.301 729.976,-403.301 723.976,-397.301 723.976,-391.301 723.976,-391.301 723.976,-379.301 723.976,-379.301 723.976,-373.301 729.976,-367.301 735.976,-367.301 735.976,-367.301 873.976,-367.301 873.976,-367.301 879.976,-367.301 885.976,-373.301 885.976,-379.301 885.976,-379.301 885.976,-391.301 885.976,-391.301 885.976,-397.301 879.976,-403.301 873.976,-403.301"/>
<text text-anchor="middle" x="804.976" y="-381.601" font-family="Roboto" font-size="14.00">Aanvullend Onderzoek</text>
</a>
</g>
</g>
<!-- 1842&#45;&gt;1671 -->
<g id="edge5" class="edge"><title>1842&#45;&gt;1671</title>
<path fill="none" stroke="blue" d="M723.95,-372.377C723.783,-372.351 723.616,-372.324 723.449,-372.297"/>
<polygon fill="none" stroke="blue" points="726.487,-369.238 716.061,-371.119 725.385,-376.151 726.487,-369.238"/>
</g>
<!-- 1915 -->
<g id="node7" class="node"><title>1915</title>
<g id="a_node7"><a xlink:title="Informatie over de verwijzing zelf. met daarin o.a. de reden van verwijzing en verzoek om in de behoefte aan zorg of hulp te voorzien. ">
<path fill="salmon" stroke="black" d="M481.738,-735.116C481.738,-735.116 421.738,-735.116 421.738,-735.116 415.738,-735.116 409.738,-729.116 409.738,-723.116 409.738,-723.116 409.738,-711.116 409.738,-711.116 409.738,-705.116 415.738,-699.116 421.738,-699.116 421.738,-699.116 481.738,-699.116 481.738,-699.116 487.738,-699.116 493.738,-705.116 493.738,-711.116 493.738,-711.116 493.738,-723.116 493.738,-723.116 493.738,-729.116 487.738,-735.116 481.738,-735.116"/>
<text text-anchor="middle" x="451.738" y="-713.416" font-family="Roboto" font-size="14.00">Verwijzing</text>
</a>
</g>
</g>
<!-- 1923 -->
<g id="node9" class="node"><title>1923</title>
<g id="a_node9"><a xlink:title="Overdracht / Transfer (Order) ">
<path fill="salmon" stroke="black" d="M419.88,-639.625C419.88,-639.625 355.88,-639.625 355.88,-639.625 349.88,-639.625 343.88,-633.625 343.88,-627.625 343.88,-627.625 343.88,-615.625 343.88,-615.625 343.88,-609.625 349.88,-603.625 355.88,-603.625 355.88,-603.625 419.88,-603.625 419.88,-603.625 425.88,-603.625 431.88,-609.625 431.88,-615.625 431.88,-615.625 431.88,-627.625 431.88,-627.625 431.88,-633.625 425.88,-639.625 419.88,-639.625"/>
<text text-anchor="middle" x="387.88" y="-617.925" font-family="Roboto" font-size="14.00">Overdracht</text>
</a>
</g>
</g>
<!-- 1915&#45;&gt;1923 -->
<g id="edge7" class="edge"><title>1915&#45;&gt;1923</title>
<path fill="none" stroke="blue" d="M439.426,-698.704C429.823,-684.346 416.357,-664.208 405.596,-648.117"/>
<polygon fill="none" stroke="blue" points="408.406,-646.023 399.938,-639.656 402.587,-649.914 408.406,-646.023"/>
</g>
<!-- 2095 -->
<g id="node8" class="node"><title>2095</title>
<g id="a_node8"><a xlink:title=" ">
<path fill="salmon" stroke="black" d="M542.775,-606.732C542.775,-606.732 506.775,-606.732 506.775,-606.732 500.775,-606.732 494.775,-600.732 494.775,-594.732 494.775,-594.732 494.775,-582.732 494.775,-582.732 494.775,-576.732 500.775,-570.732 506.775,-570.732 506.775,-570.732 542.775,-570.732 542.775,-570.732 548.775,-570.732 554.775,-576.732 554.775,-582.732 554.775,-582.732 554.775,-594.732 554.775,-594.732 554.775,-600.732 548.775,-606.732 542.775,-606.732"/>
<text text-anchor="middle" x="524.775" y="-585.032" font-family="Roboto" font-size="14.00">Advies</text>
</a>
</g>
</g>
<!-- 2095&#45;&gt;1811 -->
<g id="edge6" class="edge"><title>2095&#45;&gt;1811</title>
<path fill="none" stroke="blue" d="M494.525,-573.625C438.748,-545.771 319.933,-486.435 259.933,-456.471"/>
<polygon fill="none" stroke="blue" points="261.337,-453.26 250.827,-451.924 258.209,-459.523 261.337,-453.26"/>
</g>
<!-- 1923&#45;&gt;1811 -->
<g id="edge8" class="edge"><title>1923&#45;&gt;1811</title>
<path fill="none" stroke="blue" d="M371.533,-603.382C342.146,-570.586 280.324,-501.594 246.672,-464.038"/>
<polygon fill="none" stroke="blue" points="249.22,-461.637 239.94,-456.526 244.007,-466.309 249.22,-461.637"/>
</g>
<!-- 1948 -->
<g id="node10" class="node"><title>1948</title>
<g id="a_node10"><a xlink:title="Beeindigen van zorgverlening. Van een ontslag wordt o.a. vastgelegd: datum, naam zorgverlener die ontslag verleent, type ontslag (naar thuissituatie, overplaatsing, verwijzing, overlijden). ">
<path fill="salmon" stroke="black" d="M347.293,-734.997C347.293,-734.997 305.293,-734.997 305.293,-734.997 299.293,-734.997 293.293,-728.997 293.293,-722.997 293.293,-722.997 293.293,-710.997 293.293,-710.997 293.293,-704.997 299.293,-698.997 305.293,-698.997 305.293,-698.997 347.293,-698.997 347.293,-698.997 353.293,-698.997 359.293,-704.997 359.293,-710.997 359.293,-710.997 359.293,-722.997 359.293,-722.997 359.293,-728.997 353.293,-734.997 347.293,-734.997"/>
<text text-anchor="middle" x="326.293" y="-713.297" font-family="Roboto" font-size="14.00">Ontslag</text>
</a>
</g>
</g>
<!-- 1948&#45;&gt;1923 -->
<g id="edge9" class="edge"><title>1948&#45;&gt;1923</title>
<path fill="none" stroke="blue" d="M338.168,-698.608C347.428,-684.267 360.416,-664.155 370.794,-648.084"/>
<polygon fill="none" stroke="blue" points="373.766,-649.933 376.25,-639.633 367.885,-646.135 373.766,-649.933"/>
</g>
<!-- 2161&#45;&gt;1811 -->
<g id="edge10" class="edge"><title>2161&#45;&gt;1811</title>
<path fill="none" stroke="blue" d="M213.26,-545.511C215.27,-524.803 218.574,-490.761 220.918,-466.609"/>
<polygon fill="none" stroke="blue" points="224.406,-466.903 221.888,-456.611 217.439,-466.226 224.406,-466.903"/>
</g>
<!-- 2164 -->
<g id="node12" class="node"><title>2164</title>
<g id="a_node12"><a xlink:title="Een order is synoniem voor een aanvraag van iets (een activiteit). ">
<path fill="salmon" stroke="black" d="M150.512,-474.674C150.512,-474.674 88.5118,-474.674 88.5118,-474.674 82.5118,-474.674 76.5118,-468.674 76.5118,-462.674 76.5118,-462.674 76.5118,-450.674 76.5118,-450.674 76.5118,-444.674 82.5118,-438.674 88.5118,-438.674 88.5118,-438.674 150.512,-438.674 150.512,-438.674 156.512,-438.674 162.512,-444.674 162.512,-450.674 162.512,-450.674 162.512,-462.674 162.512,-462.674 162.512,-468.674 156.512,-474.674 150.512,-474.674"/>
<text text-anchor="middle" x="119.512" y="-452.974" font-family="Roboto" font-size="14.00">Verpleging</text>
</a>
</g>
</g>
<!-- 2164&#45;&gt;1811 -->
<g id="edge11" class="edge"><title>2164&#45;&gt;1811</title>
<path fill="none" stroke="blue" d="M162.775,-449.065C170.613,-447.687 178.726,-446.26 186.375,-444.915"/>
<polygon fill="none" stroke="blue" points="187.205,-448.322 196.447,-443.143 185.992,-441.428 187.205,-448.322"/>
</g>
<!-- 2175 -->
<g id="node14" class="node"><title>2175</title>
<g id="a_node14"><a xlink:title="Informatie over de behandeling uitgevoerd door een specifieke discipline, o.a. fysiotherapie, radiotherapie, logopedie. ">
<path fill="salmon" stroke="black" d="M129.355,-622.052C129.355,-622.052 80.3546,-622.052 80.3546,-622.052 74.3546,-622.052 68.3546,-616.052 68.3546,-610.052 68.3546,-610.052 68.3546,-598.052 68.3546,-598.052 68.3546,-592.052 74.3546,-586.052 80.3546,-586.052 80.3546,-586.052 129.355,-586.052 129.355,-586.052 135.355,-586.052 141.355,-592.052 141.355,-598.052 141.355,-598.052 141.355,-610.052 141.355,-610.052 141.355,-616.052 135.355,-622.052 129.355,-622.052"/>
<text text-anchor="middle" x="104.855" y="-600.352" font-family="Roboto" font-size="14.00">Therapie</text>
</a>
</g>
</g>
<!-- 2175&#45;&gt;2161 -->
<g id="edge13" class="edge"><title>2175&#45;&gt;2161</title>
<path fill="none" stroke="blue" d="M141.553,-590.18C145.663,-588.626 149.919,-587.017 154.21,-585.395"/>
<polygon fill="none" stroke="blue" points="155.498,-588.65 163.614,-581.84 153.023,-582.102 155.498,-588.65"/>
</g>
<!-- 2167 -->
<g id="node15" class="node"><title>2167</title>
<g id="a_node15"><a xlink:title="Interventie is een conditionele Activiteit.&#10;&#10;E.g. in het verpleegplan staat bijvoorbeeld:&#10;Als patient hoofdpijn heeft, geef hem dan paracetamol.&#10;Als de patient dan hoofdpijn heeft en je geeft paracetamol, dan is dat een Interventie. ">
<path fill="salmon" stroke="black" d="M407.635,-341.502C407.635,-341.502 346.635,-341.502 346.635,-341.502 340.635,-341.502 334.635,-335.502 334.635,-329.502 334.635,-329.502 334.635,-317.502 334.635,-317.502 334.635,-311.502 340.635,-305.502 346.635,-305.502 346.635,-305.502 407.635,-305.502 407.635,-305.502 413.635,-305.502 419.635,-311.502 419.635,-317.502 419.635,-317.502 419.635,-329.502 419.635,-329.502 419.635,-335.502 413.635,-341.502 407.635,-341.502"/>
<text text-anchor="middle" x="377.135" y="-319.802" font-family="Roboto" font-size="14.00">Interventie</text>
</a>
</g>
</g>
<!-- 2167&#45;&gt;2171 -->
<g id="edge14" class="edge"><title>2167&#45;&gt;2171</title>
<path fill="none" stroke="blue" d="M334.584,-336.94C333.325,-337.337 332.063,-337.736 330.801,-338.135"/>
<polygon fill="none" stroke="blue" points="329.669,-334.822 321.187,-341.171 331.777,-341.497 329.669,-334.822"/>
</g>
<!-- 1969 -->
<g id="node18" class="node"><title>1969</title>
<g id="a_node18"><a xlink:title="Het plan tot het verlenen van verpleegkundige zorg volgens een bepaalde methode of inzicht met een bepaald (verpleeg)doel.&#10;&#10;Barthelscore, Delirium Observatie Screening, &#160;Diabetes Mellitius, Lijnsepsis, Pijnanamnese, Wond, Risico op ondervoeding, Risico Delier, Risico Decubitus, Checklist Stomazorg, Checklist Cardio, Lichaamsfuncties, Checklist Angio, Intoxicaties, Vochtbalans, Observatie (WCN) ">
<path fill="green" stroke="black" d="M516.787,-308.678C516.787,-308.678 439.787,-308.678 439.787,-308.678 433.787,-308.678 427.787,-302.678 427.787,-296.678 427.787,-296.678 427.787,-284.678 427.787,-284.678 427.787,-278.678 433.787,-272.678 439.787,-272.678 439.787,-272.678 516.787,-272.678 516.787,-272.678 522.787,-272.678 528.787,-278.678 528.787,-284.678 528.787,-284.678 528.787,-296.678 528.787,-296.678 528.787,-302.678 522.787,-308.678 516.787,-308.678"/>
<text text-anchor="middle" x="478.287" y="-286.978" font-family="Roboto" font-size="14.00">Verpleegplan</text>
</a>
</g>
</g>
<!-- 2167&#45;&gt;1969 -->
<g id="edge19" class="edge"><title>2167&#45;&gt;1969</title>
<path fill="none" stroke="green" d="M419.74,-309.677C419.902,-309.624 420.064,-309.572 420.226,-309.519"/>
<polygon fill="none" stroke="green" points="416.158,-310.839 420.631,-305.183 427.572,-307.135 423.1,-312.792 416.158,-310.839"/>
</g>
<!-- 2169 -->
<g id="node16" class="node"><title>2169</title>
<g id="a_node16"><a xlink:title=" ">
<path fill="salmon" stroke="black" d="M492.771,-154.916C492.771,-154.916 459.771,-154.916 459.771,-154.916 453.771,-154.916 447.771,-148.916 447.771,-142.916 447.771,-142.916 447.771,-130.916 447.771,-130.916 447.771,-124.916 453.771,-118.916 459.771,-118.916 459.771,-118.916 492.771,-118.916 492.771,-118.916 498.771,-118.916 504.771,-124.916 504.771,-130.916 504.771,-130.916 504.771,-142.916 504.771,-142.916 504.771,-148.916 498.771,-154.916 492.771,-154.916"/>
<text text-anchor="middle" x="476.271" y="-133.216" font-family="Roboto" font-size="14.00">Meten</text>
</a>
</g>
</g>
<!-- 2169&#45;&gt;2171 -->
<g id="edge15" class="edge"><title>2169&#45;&gt;2171</title>
<path fill="none" stroke="blue" d="M460.245,-154.949C426.25,-193.201 346.81,-282.591 307.419,-326.914"/>
<polygon fill="none" stroke="blue" points="304.577,-324.844 300.55,-334.644 309.809,-329.494 304.577,-324.844"/>
</g>
<!-- 2169&#45;&gt;1969 -->
<g id="edge18" class="edge"><title>2169&#45;&gt;1969</title>
<path fill="none" stroke="green" d="M476.51,-155.158C476.849,-181.052 477.476,-228.795 477.887,-260.141"/>
<polygon fill="none" stroke="green" points="477.891,-260.461 481.969,-266.408 478.048,-272.46 473.97,-266.513 477.891,-260.461"/>
</g>
<!-- 2170 -->
<g id="node17" class="node"><title>2170</title>
<g id="a_node17"><a xlink:title=" ">
<path fill="salmon" stroke="black" d="M556.21,-198.956C556.21,-198.956 518.21,-198.956 518.21,-198.956 512.21,-198.956 506.21,-192.956 506.21,-186.956 506.21,-186.956 506.21,-174.956 506.21,-174.956 506.21,-168.956 512.21,-162.956 518.21,-162.956 518.21,-162.956 556.21,-162.956 556.21,-162.956 562.21,-162.956 568.21,-168.956 568.21,-174.956 568.21,-174.956 568.21,-186.956 568.21,-186.956 568.21,-192.956 562.21,-198.956 556.21,-198.956"/>
<text text-anchor="middle" x="537.21" y="-177.256" font-family="Roboto" font-size="14.00">Scoren</text>
</a>
</g>
</g>
<!-- 2170&#45;&gt;2171 -->
<g id="edge16" class="edge"><title>2170&#45;&gt;2171</title>
<path fill="none" stroke="blue" d="M506.154,-195.705C464.258,-216.37 388.335,-256.579 331.435,-302.302 322.288,-309.653 313.257,-318.772 305.593,-327.229"/>
<polygon fill="none" stroke="blue" points="302.96,-324.923 298.975,-334.74 308.212,-329.551 302.96,-324.923"/>
</g>
<!-- 2170&#45;&gt;1969 -->
<g id="edge17" class="edge"><title>2170&#45;&gt;1969</title>
<path fill="none" stroke="green" d="M527.48,-199.074C518.311,-216.148 504.423,-242.009 493.739,-261.904"/>
<polygon fill="none" stroke="green" points="493.709,-261.961 494.394,-269.139 488.031,-272.533 487.346,-265.354 493.709,-261.961"/>
</g>
<!-- 1969&#45;&gt;1968 -->
<g id="edge23" class="edge"><title>1969&#45;&gt;1968</title>
<path fill="none" stroke="blue" d="M529.044,-274.227C529.2,-274.176 529.357,-274.125 529.513,-274.075"/>
<polygon fill="none" stroke="blue" points="528.122,-278.205 536.555,-271.792 525.963,-271.546 528.122,-278.205"/>
</g>
<!-- 2146 -->
<g id="node20" class="node"><title>2146</title>
<g id="a_node20"><a xlink:title="@GM/JPB: Een medicatieafspraak is het voorstel van een voorschrijver tot gebruik van medicatie door een pati?nt. ">
<path fill="salmon" stroke="black" d="M142.474,-385.062C142.474,-385.062 31.4741,-385.062 31.4741,-385.062 25.4741,-385.062 19.4741,-379.062 19.4741,-373.062 19.4741,-373.062 19.4741,-361.062 19.4741,-361.062 19.4741,-355.062 25.4741,-349.062 31.4741,-349.062 31.4741,-349.062 142.474,-349.062 142.474,-349.062 148.474,-349.062 154.474,-355.062 154.474,-361.062 154.474,-361.062 154.474,-373.062 154.474,-373.062 154.474,-379.062 148.474,-385.062 142.474,-385.062"/>
<text text-anchor="middle" x="86.9741" y="-363.362" font-family="Roboto" font-size="14.00">Medicatieafspraak</text>
</a>
</g>
</g>
<!-- 2146&#45;&gt;1811 -->
<g id="edge24" class="edge"><title>2146&#45;&gt;1811</title>
<path fill="none" stroke="blue" d="M121.819,-385.237C141.985,-395.755 167.32,-408.97 187.675,-419.588"/>
<polygon fill="none" stroke="blue" points="186.156,-422.743 196.641,-424.264 189.394,-416.536 186.156,-422.743"/>
</g>
<!-- 2149 -->
<g id="node21" class="node"><title>2149</title>
<g id="a_node21"><a xlink:title=" ">
<path fill="salmon" stroke="black" d="M145,-291.928C145,-291.928 12,-291.928 12,-291.928 6,-291.928 5.68434e-014,-285.928 5.68434e-014,-279.928 5.68434e-014,-279.928 5.68434e-014,-267.928 5.68434e-014,-267.928 5.68434e-014,-261.928 6,-255.928 12,-255.928 12,-255.928 145,-255.928 145,-255.928 151,-255.928 157,-261.928 157,-267.928 157,-267.928 157,-279.928 157,-279.928 157,-285.928 151,-291.928 145,-291.928"/>
<text text-anchor="middle" x="78.5" y="-270.228" font-family="Roboto" font-size="14.00">Verstrekkingsverzoek</text>
</a>
</g>
</g>
<!-- 2149&#45;&gt;1811 -->
<g id="edge25" class="edge"><title>2149&#45;&gt;1811</title>
<path fill="none" stroke="blue" d="M100.849,-291.997C117.397,-305.891 140.034,-326.01 157.674,-345.862 176.111,-366.611 194.216,-392.496 206.784,-411.601"/>
<polygon fill="none" stroke="blue" points="203.936,-413.641 212.318,-420.121 209.806,-409.829 203.936,-413.641"/>
</g>
<!-- 2150 -->
<g id="node22" class="node"><title>2150</title>
<g id="a_node22"><a xlink:title="Is toedieningsregistratie&#10;&#10;Informatie over aan een patient toegediende medicatie (o.a. medicijn, dosering, tijdstip, wijze van toediening, naam toediener)&#10; ">
<path fill="salmon" stroke="black" d="M166.026,-204.433C166.026,-204.433 38.0263,-204.433 38.0263,-204.433 32.0263,-204.433 26.0263,-198.433 26.0263,-192.433 26.0263,-192.433 26.0263,-180.433 26.0263,-180.433 26.0263,-174.433 32.0263,-168.433 38.0263,-168.433 38.0263,-168.433 166.026,-168.433 166.026,-168.433 172.026,-168.433 178.026,-174.433 178.026,-180.433 178.026,-180.433 178.026,-192.433 178.026,-192.433 178.026,-198.433 172.026,-204.433 166.026,-204.433"/>
<text text-anchor="middle" x="102.026" y="-182.733" font-family="Roboto" font-size="14.00">Medicatie toediening</text>
</a>
</g>
</g>
<!-- 2150&#45;&gt;1811 -->
<g id="edge27" class="edge"><title>2150&#45;&gt;1811</title>
<path fill="none" stroke="blue" d="M121.512,-204.597C133.999,-217.122 149.765,-234.706 160.2,-252.728 190.228,-304.59 208.958,-372.855 217.734,-410.474"/>
<polygon fill="none" stroke="blue" points="214.322,-411.254 219.947,-420.232 221.149,-409.706 214.322,-411.254"/>
</g>
<!-- 2154 -->
<g id="node23" class="node"><title>2154</title>
<g id="a_node23"><a xlink:title="@GM/JPB: Een toedieningsafspraak is de gebruiks&#45; (of toedienings&#45;)instructie van de apotheker aan de pati?nt (of zijn vertegenwoordiger of toediener), waarbij een medicatieafspraak op een concreet niveau wordt ingevuld. ">
<path fill="salmon" stroke="black" d="M212.691,-131.482C212.691,-131.482 84.6914,-131.482 84.6914,-131.482 78.6914,-131.482 72.6914,-125.482 72.6914,-119.482 72.6914,-119.482 72.6914,-107.482 72.6914,-107.482 72.6914,-101.482 78.6914,-95.4818 84.6914,-95.4818 84.6914,-95.4818 212.691,-95.4818 212.691,-95.4818 218.691,-95.4818 224.691,-101.482 224.691,-107.482 224.691,-107.482 224.691,-119.482 224.691,-119.482 224.691,-125.482 218.691,-131.482 212.691,-131.482"/>
<text text-anchor="middle" x="148.691" y="-109.782" font-family="Roboto" font-size="14.00">Toedieningsafspraak</text>
</a>
</g>
</g>
<!-- 2154&#45;&gt;1811 -->
<g id="edge26" class="edge"><title>2154&#45;&gt;1811</title>
<path fill="none" stroke="blue" d="M162.707,-131.68C169.34,-141.187 176.768,-153.304 181.226,-165.233 213.078,-250.451 221.025,-359.245 223.005,-409.957"/>
<polygon fill="none" stroke="blue" points="219.514,-410.274 223.352,-420.149 226.51,-410.036 219.514,-410.274"/>
</g>
<!-- 2155 -->
<g id="node24" class="node"><title>2155</title>
<g id="a_node24"><a xlink:title="@GM/JPB: Een verstrekking beschrijft het terhandgestelde geneesmiddel. ">
<path fill="salmon" stroke="black" d="M275.181,-80.0372C275.181,-80.0372 139.181,-80.0372 139.181,-80.0372 133.181,-80.0372 127.181,-74.0372 127.181,-68.0372 127.181,-68.0372 127.181,-56.0372 127.181,-56.0372 127.181,-50.0372 133.181,-44.0372 139.181,-44.0372 139.181,-44.0372 275.181,-44.0372 275.181,-44.0372 281.181,-44.0372 287.181,-50.0372 287.181,-56.0372 287.181,-56.0372 287.181,-68.0372 287.181,-68.0372 287.181,-74.0372 281.181,-80.0372 275.181,-80.0372"/>
<text text-anchor="middle" x="207.181" y="-58.3372" font-family="Roboto" font-size="14.00">Medicatieverstrekking</text>
</a>
</g>
</g>
<!-- 2155&#45;&gt;1811 -->
<g id="edge28" class="edge"><title>2155&#45;&gt;1811</title>
<path fill="none" stroke="blue" d="M222.213,-80.3253C224.55,-84.0762 226.612,-88.1479 227.891,-92.2818 233.464,-110.283 228.023,-115.838 227.891,-134.682 227.185,-236.049 225.153,-356.435 224.185,-410.103"/>
<polygon fill="none" stroke="blue" points="220.684,-410.155 224.001,-420.217 227.683,-410.282 220.684,-410.155"/>
</g>
<!-- 2157 -->
<g id="node25" class="node"><title>2157</title>
<g id="a_node25"><a xlink:title="@GM/JPB: Medicatiegebruik is een uitspraak over historisch, huidig of voorgenomen gebruik van een geneesmiddel. ">
<path fill="salmon" stroke="black" d="M394.519,-36C394.519,-36 290.519,-36 290.519,-36 284.519,-36 278.519,-30 278.519,-24 278.519,-24 278.519,-12 278.519,-12 278.519,-6 284.519,-0 290.519,-0 290.519,-0 394.519,-0 394.519,-0 400.519,-0 406.519,-6 406.519,-12 406.519,-12 406.519,-24 406.519,-24 406.519,-30 400.519,-36 394.519,-36"/>
<text text-anchor="middle" x="342.519" y="-14.3" font-family="Roboto" font-size="14.00">Medicatiegebruik</text>
</a>
</g>
</g>
<!-- 2157&#45;&gt;1811 -->
<g id="edge29" class="edge"><title>2157&#45;&gt;1811</title>
<path fill="none" stroke="blue" d="M336.093,-36.1828C319.342,-84.0513 273.636,-217.714 244.735,-331.577 238.054,-357.899 232.232,-388.321 228.411,-409.943"/>
<polygon fill="none" stroke="blue" points="224.912,-409.635 226.65,-420.086 231.809,-410.832 224.912,-409.635"/>
</g>
<!-- 2179 -->
<g id="node26" class="node"><title>2179</title>
<g id="a_node26"><a xlink:title="Inclusief behandeldoel.&#10;Inclusief behandelinformatie instructie, e.g. patient moet 12 uur van tevoeren niet gegeten hebben.&#10;&#10;?? Dit kan gezien worden als een super activiteit... ">
<path fill="green" stroke="black" d="M706.314,-199.598C706.314,-199.598 629.314,-199.598 629.314,-199.598 623.314,-199.598 617.314,-193.598 617.314,-187.598 617.314,-187.598 617.314,-175.598 617.314,-175.598 617.314,-169.598 623.314,-163.598 629.314,-163.598 629.314,-163.598 706.314,-163.598 706.314,-163.598 712.314,-163.598 718.314,-169.598 718.314,-175.598 718.314,-175.598 718.314,-187.598 718.314,-187.598 718.314,-193.598 712.314,-199.598 706.314,-199.598"/>
<text text-anchor="middle" x="667.814" y="-177.898" font-family="Roboto" font-size="14.00">Therapieplan</text>
</a>
</g>
</g>
<!-- 2179&#45;&gt;1968 -->
<g id="edge20" class="edge"><title>2179&#45;&gt;1968</title>
<path fill="none" stroke="blue" d="M648.298,-199.702C638.524,-208.769 626.534,-219.892 615.89,-229.766"/>
<polygon fill="none" stroke="blue" points="613.379,-227.321 608.428,-236.688 618.14,-232.453 613.379,-227.321"/>
</g>
<!-- 2174 -->
<g id="node27" class="node"><title>2174</title>
<g id="a_node27"><a xlink:title="Verzorgplan bevat het Dieet ">
<path fill="green" stroke="black" d="M731.874,-287.95C731.874,-287.95 660.874,-287.95 660.874,-287.95 654.874,-287.95 648.874,-281.95 648.874,-275.95 648.874,-275.95 648.874,-263.95 648.874,-263.95 648.874,-257.95 654.874,-251.95 660.874,-251.95 660.874,-251.95 731.874,-251.95 731.874,-251.95 737.874,-251.95 743.874,-257.95 743.874,-263.95 743.874,-263.95 743.874,-275.95 743.874,-275.95 743.874,-281.95 737.874,-287.95 731.874,-287.95"/>
<text text-anchor="middle" x="696.374" y="-266.25" font-family="Roboto" font-size="14.00">Verzorgplan</text>
</a>
</g>
</g>
<!-- 2174&#45;&gt;1968 -->
<g id="edge21" class="edge"><title>2174&#45;&gt;1968</title>
<path fill="none" stroke="blue" d="M648.592,-263.234C648.438,-263.212 648.284,-263.19 648.129,-263.169"/>
<polygon fill="none" stroke="blue" points="651.549,-260.115 641.16,-262.189 650.575,-267.047 651.549,-260.115"/>
</g>
<!-- 2189 -->
<g id="node28" class="node"><title>2189</title>
<g id="a_node28"><a xlink:title="Verzoek tot planning van een interactie tussen een pati?nt en een zorgverlener. Een afspraak heeft een bepaalde tijd, duur, plaats en doel. ">
<path fill="salmon" stroke="black" d="M527.619,-36.0755C527.619,-36.0755 426.619,-36.0755 426.619,-36.0755 420.619,-36.0755 414.619,-30.0755 414.619,-24.0755 414.619,-24.0755 414.619,-12.0755 414.619,-12.0755 414.619,-6.0755 420.619,-0.0755004 426.619,-0.0755004 426.619,-0.0755004 527.619,-0.0755004 527.619,-0.0755004 533.619,-0.0755004 539.619,-6.0755 539.619,-12.0755 539.619,-12.0755 539.619,-24.0755 539.619,-24.0755 539.619,-30.0755 533.619,-36.0755 527.619,-36.0755"/>
<text text-anchor="middle" x="477.119" y="-14.3755" font-family="Roboto" font-size="14.00">Afspraakverzoek</text>
</a>
</g>
</g>
<!-- 2189&#45;&gt;1811 -->
<g id="edge22" class="edge"><title>2189&#45;&gt;1811</title>
<path fill="none" stroke="blue" d="M458.843,-36.3134C414.449,-81.7581 300.496,-205.486 244.735,-331.577 233.57,-356.824 228.285,-388.031 225.804,-410.173"/>
<polygon fill="none" stroke="blue" points="222.309,-409.95 224.799,-420.248 229.275,-410.645 222.309,-409.95"/>
</g>
</g>
</svg>
