<?xml version="1.0" encoding="UTF-8" standalone="no"?>
<!DOCTYPE svg PUBLIC "-//W3C//DTD SVG 1.1//EN"
 "http://www.w3.org/Graphics/SVG/1.1/DTD/svg11.dtd">
<!-- Generated by graphviz version 2.38.0 (20140413.2041)
 -->
<!-- Title: %3 Pages: 1 -->
<svg width="1257pt" height="852pt"
 viewBox="0.00 0.00 1257.41 852.04" xmlns="http://www.w3.org/2000/svg" xmlns:xlink="http://www.w3.org/1999/xlink">
<g id="graph0" class="graph" transform="scale(1 1) rotate(0) translate(4 848.037)">
<title>%3</title>
<polygon fill="white" stroke="none" points="-4,4 -4,-848.037 1253.41,-848.037 1253.41,4 -4,4"/>
<!-- 1960 -->
<g id="node1" class="node"><title>1960</title>
<g id="a_node1"><a xlink:title="Aan een patient gerelateerde kenmerken/eigenschappen afkomstig van waarneming/onderzoek door een zorgverlener, die een of meer aspecten beschrijven van de medische conditie/toestand van een patient.&#10;De hier bedoelde kenmerken/eigenschappen hebben vaak een signalerende functie of zijn om andere redenen relevant als basisgegeven voor alle zorgverleners die in contact komen met de desbetreffende patient. o.a.:&#10;&#45; Allergie&#10;&#45; Overgevoeligheid/intolerantie&#10;&#45; Intoxicaties (roken, drugs, alcohol)&#10;&#45; Vaccinaties&#10;&#45; Zwangerschap&#10;&#45; Lengte, gewicht&#10;&#45; Genetische kenmerken&#10;&#45; Reanimatiebeleid, persoonlijke wensen&#10;&#10;Is aggregatie van alle patient gegevens(resultaten) en lijsten.&#10;&#10;Specialisaties of subsets, e.g.&#10;&lt;ol&gt;&#10;&lt;li&gt;Medisch dossier&lt;/li&gt;&#10;&lt;li&gt;Kerndossier&lt;/li&gt;&#10;&lt;li&gt;Verpleegkundig dossier&lt;/li&gt;&#10;&lt;li&gt;Specialistisch&lt;/li&gt;&#10;&lt;/ol&gt; ">
<path fill="green" stroke="black" d="M476.374,-450.772C476.374,-450.772 390.374,-450.772 390.374,-450.772 384.374,-450.772 378.374,-444.772 378.374,-438.772 378.374,-438.772 378.374,-426.772 378.374,-426.772 378.374,-420.772 384.374,-414.772 390.374,-414.772 390.374,-414.772 476.374,-414.772 476.374,-414.772 482.374,-414.772 488.374,-420.772 488.374,-426.772 488.374,-426.772 488.374,-438.772 488.374,-438.772 488.374,-444.772 482.374,-450.772 476.374,-450.772"/>
<text text-anchor="middle" x="433.374" y="-429.072" font-family="Roboto" font-size="14.00">Patientdossier</text>
</a>
</g>
</g>
<!-- 1965 -->
<g id="node43" class="node"><title>1965</title>
<g id="a_node43"><a xlink:title="Administratieve informatie van de patient&#10;&#10;Administratieve informatie van de patient&#10;&#10;Een patiënt is een persoon die medische, paramedische of verpleegkundige zorg ontvangt van een zorgverlener.&#10;Van een patiënt worden o.a. opgeslagen:&#10;&#45; Persoonsgegevens (BSN, Naam, Adres, Woonplaats)&#10;&#45; Demografische gegevens (geboortedatum, meerling, burgerlijke staat, nationaliteit)&#10;&#45; Contactgegevens (bijv. familie)&#10;&#45; Huisartsgegevens (Naam, Adres, Woonplaats)&#10;&#45; Verzekering gegevens (naam verzekeraar, polisnr)&#10;Deze gegevens worden (als geheel of als combinatie van ??n of meer hierboven opgesomde categorie?n) ook wel aangeduid met het begrip &#39;stamgegevens&#39;. ">
<path fill="#ffff99" stroke="black" d="M858.099,-471.257C858.099,-471.257 820.099,-471.257 820.099,-471.257 814.099,-471.257 808.099,-465.257 808.099,-459.257 808.099,-459.257 808.099,-447.257 808.099,-447.257 808.099,-441.257 814.099,-435.257 820.099,-435.257 820.099,-435.257 858.099,-435.257 858.099,-435.257 864.099,-435.257 870.099,-441.257 870.099,-447.257 870.099,-447.257 870.099,-459.257 870.099,-459.257 870.099,-465.257 864.099,-471.257 858.099,-471.257"/>
<text text-anchor="middle" x="839.099" y="-449.557" font-family="Roboto" font-size="14.00">Patient</text>
</a>
</g>
</g>
<!-- 1960&#45;&gt;1965 -->
<g id="edge45" class="edge"><title>1960&#45;&gt;1965</title>
<path fill="none" stroke="lightgray" d="M488.514,-435.556C570.911,-439.716 724.324,-447.462 797.797,-451.171"/>
<polygon fill="lightgray" stroke="lightgray" points="808.039,-451.688 797.825,-455.678 803.046,-451.436 798.052,-451.184 798.052,-451.184 798.052,-451.184 803.046,-451.436 798.279,-446.69 808.039,-451.688 808.039,-451.688"/>
<text text-anchor="middle" x="621.035" y="-447.435" font-family="Roboto" font-size="14.00">hoort bij</text>
</g>
<!-- 1684 -->
<g id="node2" class="node"><title>1684</title>
<g id="a_node2"><a xlink:title=" ">
<path fill="#ffff99" stroke="black" d="M1108.64,-512.693C1108.64,-512.693 1055.64,-512.693 1055.64,-512.693 1049.64,-512.693 1043.64,-506.693 1043.64,-500.693 1043.64,-500.693 1043.64,-488.693 1043.64,-488.693 1043.64,-482.693 1049.64,-476.693 1055.64,-476.693 1055.64,-476.693 1108.64,-476.693 1108.64,-476.693 1114.64,-476.693 1120.64,-482.693 1120.64,-488.693 1120.64,-488.693 1120.64,-500.693 1120.64,-500.693 1120.64,-506.693 1114.64,-512.693 1108.64,-512.693"/>
<text text-anchor="middle" x="1082.14" y="-490.993" font-family="Roboto" font-size="14.00">Resource</text>
</a>
</g>
</g>
<!-- 1766 -->
<g id="node3" class="node"><title>1766</title>
<g id="a_node3"><a xlink:title="Resultaat van een activiteit.&#10;Health Record Entries ">
<path fill="#ffff99" stroke="black" d="M325.393,-442.494C325.393,-442.494 272.393,-442.494 272.393,-442.494 266.393,-442.494 260.393,-436.494 260.393,-430.494 260.393,-430.494 260.393,-418.494 260.393,-418.494 260.393,-412.494 266.393,-406.494 272.393,-406.494 272.393,-406.494 325.393,-406.494 325.393,-406.494 331.393,-406.494 337.393,-412.494 337.393,-418.494 337.393,-418.494 337.393,-430.494 337.393,-430.494 337.393,-436.494 331.393,-442.494 325.393,-442.494"/>
<text text-anchor="middle" x="298.893" y="-420.794" font-family="Roboto" font-size="14.00">Resultaat</text>
</a>
</g>
</g>
<!-- 1766&#45;&gt;1960 -->
<g id="edge1" class="edge"><title>1766&#45;&gt;1960</title>
<path fill="none" stroke="green" d="M337.43,-426.866C346.479,-427.423 356.383,-428.033 366.282,-428.642"/>
<polygon fill="none" stroke="green" points="366.319,-428.645 372.554,-425.021 378.296,-429.382 372.062,-433.006 366.319,-428.645"/>
</g>
<!-- 1759 -->
<g id="node4" class="node"><title>1759</title>
<g id="a_node4"><a xlink:title="Materiaal is het resultaat van een biopt of bloedafname.&#10;&#10;Alle van het menselijk lichaam of van embryo (afgescheiden) cellen/bestanddelen, zoals een haar, weefsel, bloed, sputum, urine, etc. waarop aanvullend onderzoek kan worden verricht (t.b.v. diagnostiek en behandeling).&#10;&#10;Resultaat kan van alles zijn:&#10;&lt;ul&gt;&#10;&lt;li&gt;uitslag &#45;&gt; verslag&lt;/li&gt;&#10;&lt;li&gt;materiaal&lt;/li&gt;&#10;&lt;/ul&gt;&#10;&#10;Uit (onderzoeks)materiaal kunnen metingen worden gedaan die ruwe uitslagen geven (labuitslagen) of interpretaties / observaties (kleur e.d.)&#10;&#10;Verslag en Diagnose zijn interpretatie / beoordeling van ruwe observaties / uitslagen.&#10;&#10;Alias RDZ lichaamsmateriaal of materiaalgegevens.&#10;&#10;&lt;b&gt;Onderzoeksmateriaal is generieke versie van materiaal nodig voor onderzoek, dus kan lichaamsmateriaal(biopt, bloed) zijn, maar ook (rontgen)foto&#39;s.&lt;/b&gt; ">
<path fill="#ffff99" stroke="black" d="M956.041,-623.696C956.041,-623.696 826.041,-623.696 826.041,-623.696 820.041,-623.696 814.041,-617.696 814.041,-611.696 814.041,-611.696 814.041,-599.696 814.041,-599.696 814.041,-593.696 820.041,-587.696 826.041,-587.696 826.041,-587.696 956.041,-587.696 956.041,-587.696 962.041,-587.696 968.041,-593.696 968.041,-599.696 968.041,-599.696 968.041,-611.696 968.041,-611.696 968.041,-617.696 962.041,-623.696 956.041,-623.696"/>
<text text-anchor="middle" x="891.041" y="-601.996" font-family="Roboto" font-size="14.00">Onderzoeksmateriaal</text>
</a>
</g>
</g>
<!-- 1759&#45;&gt;1766 -->
<g id="edge2" class="edge"><title>1759&#45;&gt;1766</title>
<path fill="none" stroke="blue" d="M823.295,-587.696C724.154,-560.92 534.063,-507.936 375.174,-453.972 365.994,-450.855 356.285,-447.303 346.981,-443.771"/>
<polygon fill="none" stroke="blue" points="348.062,-440.437 337.472,-440.116 345.551,-446.971 348.062,-440.437"/>
</g>
<!-- 1820 -->
<g id="node5" class="node"><title>1820</title>
<g id="a_node5"><a xlink:title=" ">
<path fill="#ffff99" stroke="black" d="M829.206,-361.619C829.206,-361.619 796.206,-361.619 796.206,-361.619 790.206,-361.619 784.206,-355.619 784.206,-349.619 784.206,-349.619 784.206,-337.619 784.206,-337.619 784.206,-331.619 790.206,-325.619 796.206,-325.619 796.206,-325.619 829.206,-325.619 829.206,-325.619 835.206,-325.619 841.206,-331.619 841.206,-337.619 841.206,-337.619 841.206,-349.619 841.206,-349.619 841.206,-355.619 835.206,-361.619 829.206,-361.619"/>
<text text-anchor="middle" x="812.706" y="-339.919" font-family="Roboto" font-size="14.00">Klacht</text>
</a>
</g>
</g>
<!-- 1820&#45;&gt;1766 -->
<g id="edge51" class="edge"><title>1820&#45;&gt;1766</title>
<path fill="none" stroke="blue" d="M784.131,-352.797C775.535,-355.165 766.019,-357.401 757.109,-358.669 625.534,-377.393 588.635,-339.016 458.134,-364.151 418.538,-371.778 375.934,-388.406 344.765,-402.28"/>
<polygon fill="none" stroke="blue" points="343.143,-399.172 335.475,-406.484 346.029,-405.55 343.143,-399.172"/>
</g>
<!-- 1946 -->
<g id="node11" class="node"><title>1946</title>
<g id="a_node11"><a xlink:title="Verwijsinformatie waarmee de zorgverlener een patient naar een andere zorgverlener in een andere organisatie verwijst &#160;&#160;Dit kan in de vorm van een brief, document, bericht, etc. ">
<path fill="green" stroke="black" d="M741.909,-355.469C741.909,-355.469 635.909,-355.469 635.909,-355.469 629.909,-355.469 623.909,-349.469 623.909,-343.469 623.909,-343.469 623.909,-331.469 623.909,-331.469 623.909,-325.469 629.909,-319.469 635.909,-319.469 635.909,-319.469 741.909,-319.469 741.909,-319.469 747.909,-319.469 753.909,-325.469 753.909,-331.469 753.909,-331.469 753.909,-343.469 753.909,-343.469 753.909,-349.469 747.909,-355.469 741.909,-355.469"/>
<text text-anchor="middle" x="688.909" y="-333.769" font-family="Roboto" font-size="14.00">Verwijsinformatie</text>
</a>
</g>
</g>
<!-- 1820&#45;&gt;1946 -->
<g id="edge7" class="edge"><title>1820&#45;&gt;1946</title>
<path fill="none" stroke="green" d="M783.993,-342.192C778.509,-341.92 772.531,-341.623 766.331,-341.315"/>
<polygon fill="none" stroke="green" points="766.191,-341.308 760,-345.006 754.206,-340.713 760.397,-337.015 766.191,-341.308"/>
</g>
<!-- 1848 -->
<g id="node24" class="node"><title>1848</title>
<g id="a_node24"><a xlink:title="Vraaggesprek tussen zorgverlener en pati?nt (of zijn/haar omgeving) waarbij de zorgverlener gerichte vragen stelt n.a.v. de zorgvraag.&#10;Er zijn diverse soorten anamneses. Naast een algemene verpleegkundige anamnese die wordt afgenomen bij klinische opname heeft elk specialisme een eigen anamnese. Naast specifieke medische klachten gaat een anamnese ook in op de omgeving (familieanamnese), voorgeschiedenis, leefgewoonten (intoxicaties, voeding), medicatie.&#10;De invulling hiervan is deels specialisme&#45;specifiek. ">
<path fill="green" stroke="black" d="M1001.01,-341.733C1001.01,-341.733 889.011,-341.733 889.011,-341.733 883.011,-341.733 877.011,-335.733 877.011,-329.733 877.011,-329.733 877.011,-317.733 877.011,-317.733 877.011,-311.733 883.011,-305.733 889.011,-305.733 889.011,-305.733 1001.01,-305.733 1001.01,-305.733 1007.01,-305.733 1013.01,-311.733 1013.01,-317.733 1013.01,-317.733 1013.01,-329.733 1013.01,-329.733 1013.01,-335.733 1007.01,-341.733 1001.01,-341.733"/>
<text text-anchor="middle" x="945.011" y="-320.033" font-family="Roboto" font-size="14.00">Anamnese verslag</text>
</a>
</g>
</g>
<!-- 1820&#45;&gt;1848 -->
<g id="edge23" class="edge"><title>1820&#45;&gt;1848</title>
<path fill="none" stroke="green" d="M841.414,-339.304C848.594,-338.224 856.652,-337.013 865.019,-335.756"/>
<polygon fill="none" stroke="green" points="865.128,-335.739 870.467,-330.892 876.995,-333.956 871.656,-338.803 865.128,-335.739"/>
</g>
<!-- 1860 -->
<g id="node46" class="node"><title>1860</title>
<g id="a_node46"><a xlink:title="De vastgestelde zorgbehoefte van de patient ">
<path fill="#ffff99" stroke="black" d="M692.727,-36C692.727,-36 613.727,-36 613.727,-36 607.727,-36 601.727,-30 601.727,-24 601.727,-24 601.727,-12 601.727,-12 601.727,-6 607.727,-0 613.727,-0 613.727,-0 692.727,-0 692.727,-0 698.727,-0 704.727,-6 704.727,-12 704.727,-12 704.727,-24 704.727,-24 704.727,-30 698.727,-36 692.727,-36"/>
<text text-anchor="middle" x="653.227" y="-14.3" font-family="Roboto" font-size="14.00">Zorgbehoefte</text>
</a>
</g>
</g>
<!-- 1820&#45;&gt;1860 -->
<g id="edge46" class="edge"><title>1820&#45;&gt;1860</title>
<path fill="none" stroke="lightgray" d="M818.108,-325.399C821.506,-312.965 825.568,-296.049 827.317,-280.812 829.466,-262.09 830.021,-257.061 827.317,-238.412 825.932,-228.858 823.039,-227.052 821.149,-217.586 817.999,-201.809 824.261,-196.102 817.313,-181.592 788.486,-121.382 728.081,-70.4891 689.152,-42.1352"/>
<polygon fill="lightgray" stroke="lightgray" points="680.711,-36.0945 691.462,-38.2547 684.777,-39.0043 688.843,-41.9141 688.843,-41.9141 688.843,-41.9141 684.777,-39.0043 686.224,-45.5736 680.711,-36.0945 680.711,-36.0945"/>
<text text-anchor="middle" x="750.204" y="-151.277" font-family="Roboto" font-size="14.00">omzetten naar</text>
</g>
<!-- 1983 -->
<g id="node6" class="node"><title>1983</title>
<g id="a_node6"><a xlink:title="De naam van de ziekte of aandoening waaraan iemand verondersteld wordt te lijden.&#10;Er is onderscheid mogelijk naar type diagnose: differentiaaldiagnose (werkdiagnose) en einddiagnose (ontslagdiagnose).&#10;De invulling hiervan is specialisme&#45;specifiek. ">
<path fill="#ffff99" stroke="black" d="M907.208,-667.725C907.208,-667.725 854.208,-667.725 854.208,-667.725 848.208,-667.725 842.208,-661.725 842.208,-655.725 842.208,-655.725 842.208,-643.725 842.208,-643.725 842.208,-637.725 848.208,-631.725 854.208,-631.725 854.208,-631.725 907.208,-631.725 907.208,-631.725 913.208,-631.725 919.208,-637.725 919.208,-643.725 919.208,-643.725 919.208,-655.725 919.208,-655.725 919.208,-661.725 913.208,-667.725 907.208,-667.725"/>
<text text-anchor="middle" x="880.708" y="-646.025" font-family="Roboto" font-size="14.00">Diagnose</text>
</a>
</g>
</g>
<!-- 1983&#45;&gt;1766 -->
<g id="edge11" class="edge"><title>1983&#45;&gt;1766</title>
<path fill="none" stroke="blue" d="M842.127,-637.582C831.913,-634.241 820.924,-630.533 810.841,-626.896 638.436,-564.715 437.06,-482.121 346.853,-444.585"/>
<polygon fill="none" stroke="blue" points="348.019,-441.28 337.442,-440.665 345.327,-447.741 348.019,-441.28"/>
</g>
<!-- 1993 -->
<g id="node7" class="node"><title>1993</title>
<g id="a_node7"><a xlink:title="Ondertekende verklaring van een patient dat hij/zij instemt met datgene wat in de verklaring is vastgelegd (bijvoorbeeld inzake aard, aanpak en risico) m.b.t. een onderzoek, behandeling of operatie die de patiënt ondergaat.&#10;&#10; ">
<path fill="#ffff99" stroke="black" d="M831.479,-711.736C831.479,-711.736 723.479,-711.736 723.479,-711.736 717.479,-711.736 711.479,-705.736 711.479,-699.736 711.479,-699.736 711.479,-687.736 711.479,-687.736 711.479,-681.736 717.479,-675.736 723.479,-675.736 723.479,-675.736 831.479,-675.736 831.479,-675.736 837.479,-675.736 843.479,-681.736 843.479,-687.736 843.479,-687.736 843.479,-699.736 843.479,-699.736 843.479,-705.736 837.479,-711.736 831.479,-711.736"/>
<text text-anchor="middle" x="777.479" y="-690.036" font-family="Roboto" font-size="14.00">Informed Consent</text>
</a>
</g>
</g>
<!-- 1993&#45;&gt;1766 -->
<g id="edge54" class="edge"><title>1993&#45;&gt;1766</title>
<path fill="none" stroke="blue" d="M745.334,-675.653C660.959,-628.185 433.243,-500.077 339.778,-447.495"/>
<polygon fill="none" stroke="blue" points="341.329,-444.352 330.898,-442.499 337.897,-450.453 341.329,-444.352"/>
</g>
<!-- 2097 -->
<g id="node8" class="node"><title>2097</title>
<g id="a_node8"><a xlink:title="Beschrijving van het chronologisch verloop van het ziekteproces van een pati?nt en van de voortgang van de behandeling, opgeschreven/samengevat door de arts.&#10;NB: Er bestaan verschillende opvattingen/invullingen van het begrip decursus. ">
<path fill="#ffff99" stroke="black" d="M691.455,-744.16C691.455,-744.16 637.455,-744.16 637.455,-744.16 631.455,-744.16 625.455,-738.16 625.455,-732.16 625.455,-732.16 625.455,-720.16 625.455,-720.16 625.455,-714.16 631.455,-708.16 637.455,-708.16 637.455,-708.16 691.455,-708.16 691.455,-708.16 697.455,-708.16 703.455,-714.16 703.455,-720.16 703.455,-720.16 703.455,-732.16 703.455,-732.16 703.455,-738.16 697.455,-744.16 691.455,-744.16"/>
<text text-anchor="middle" x="664.455" y="-722.46" font-family="Roboto" font-size="14.00">Decursus</text>
</a>
</g>
</g>
<!-- 2097&#45;&gt;1766 -->
<g id="edge3" class="edge"><title>2097&#45;&gt;1766</title>
<path fill="none" stroke="blue" d="M642.41,-707.969C579.686,-656.208 400.156,-508.058 328.73,-449.116"/>
<polygon fill="none" stroke="blue" points="330.907,-446.375 320.966,-442.709 326.451,-451.774 330.907,-446.375"/>
</g>
<!-- 1809 -->
<g id="node9" class="node"><title>1809</title>
<g id="a_node9"><a xlink:title="Een actuele lijst/momentopname van het medicatiegebruik door een patient.&#10;Er zijn verschillende typen te onderscheiden:&#10;? Medicatie anamnese &#10;? Opnamemedicatie&#10;? Ontslagmedicatie&#10;&#10;Aggregatie van iig:&#10;? Medicatieafspraak&#10;? Toediningsafspraak&#10;? Medicatiegebruik&#10;? (Contra&#45;indicaties) ">
<path fill="#ffff99" stroke="black" d="M688.334,-403.351C688.334,-403.351 473.334,-403.351 473.334,-403.351 467.334,-403.351 461.334,-397.351 461.334,-391.351 461.334,-391.351 461.334,-379.351 461.334,-379.351 461.334,-373.351 467.334,-367.351 473.334,-367.351 473.334,-367.351 688.334,-367.351 688.334,-367.351 694.334,-367.351 700.334,-373.351 700.334,-379.351 700.334,-379.351 700.334,-391.351 700.334,-391.351 700.334,-397.351 694.334,-403.351 688.334,-403.351"/>
<text text-anchor="middle" x="580.834" y="-381.651" font-family="Roboto" font-size="14.00">Actuele medicatie overzicht (AMO)</text>
</a>
</g>
</g>
<!-- 1809&#45;&gt;1960 -->
<g id="edge4" class="edge"><title>1809&#45;&gt;1960</title>
<path fill="none" stroke="green" d="M524.665,-403.414C516.588,-406.012 508.213,-408.705 499.958,-411.36"/>
<polygon fill="none" stroke="green" points="499.836,-411.399 495.348,-417.044 488.412,-415.073 492.899,-409.428 499.836,-411.399"/>
</g>
<!-- 1809&#45;&gt;1946 -->
<g id="edge8" class="edge"><title>1809&#45;&gt;1946</title>
<path fill="none" stroke="green" d="M621.692,-367.249C626.669,-365.044 631.804,-362.769 636.914,-360.505"/>
<polygon fill="none" stroke="green" points="637.021,-360.458 640.886,-354.37 647.992,-355.597 644.127,-361.685 637.021,-360.458"/>
</g>
<!-- 1824 -->
<g id="node10" class="node"><title>1824</title>
<g id="a_node10"><a xlink:title=" ">
<path fill="#ffff99" stroke="black" d="M802.113,-220.792C802.113,-220.792 693.113,-220.792 693.113,-220.792 687.113,-220.792 681.113,-214.792 681.113,-208.792 681.113,-208.792 681.113,-196.792 681.113,-196.792 681.113,-190.792 687.113,-184.792 693.113,-184.792 693.113,-184.792 802.113,-184.792 802.113,-184.792 808.113,-184.792 814.113,-190.792 814.113,-196.792 814.113,-196.792 814.113,-208.792 814.113,-208.792 814.113,-214.792 808.113,-220.792 802.113,-220.792"/>
<text text-anchor="middle" x="747.613" y="-199.092" font-family="Roboto" font-size="14.00">Voorgeschiedenis</text>
</a>
</g>
</g>
<!-- 1824&#45;&gt;1960 -->
<g id="edge5" class="edge"><title>1824&#45;&gt;1960</title>
<path fill="none" stroke="green" d="M687.447,-220.857C621.594,-243.697 517.501,-289.332 458.134,-364.151 449.245,-375.354 443.38,-390.024 439.601,-402.923"/>
<polygon fill="none" stroke="green" points="439.592,-402.96 441.962,-409.77 436.587,-414.577 434.217,-407.767 439.592,-402.96"/>
</g>
<!-- 1824&#45;&gt;1946 -->
<g id="edge6" class="edge"><title>1824&#45;&gt;1946</title>
<path fill="none" stroke="green" d="M680.683,-215.739C669.361,-220.94 658.998,-228.221 651.917,-238.412 636.794,-260.177 650.494,-288.899 665.317,-309.808"/>
<polygon fill="none" stroke="green" points="665.32,-309.812 672.131,-312.182 672.562,-319.38 665.752,-317.01 665.32,-309.812"/>
</g>
<!-- 1938 -->
<g id="node12" class="node"><title>1938</title>
<g id="a_node12"><a xlink:title="De informatie die uitgewisseld wordt.&#10;ID366 Overdrachtinformatie.&#10;&#10;Uitwisselingsinformatie is de abstracte basis van alle informatieobjecten die zouden kunnen worden uitgewisseld.&#10;&#45; of &#45; dit is een aggregatie van een setje&#10;&#45; of &#45; dit is het beschikbaar maken van informatie via een artsenprotaal&#10;&#10;Het is bedoeld als verstuurinformatie. Uitwisseling zegt je verstuurt iets en ontvangt iets terug.&#10;&#10;Renamen naar Informatiesetje... Uitwisseling moet eruit. ">
<path fill="#ffff99" stroke="black" d="M812.117,-277.612C812.117,-277.612 667.117,-277.612 667.117,-277.612 661.117,-277.612 655.117,-271.612 655.117,-265.612 655.117,-265.612 655.117,-253.612 655.117,-253.612 655.117,-247.612 661.117,-241.612 667.117,-241.612 667.117,-241.612 812.117,-241.612 812.117,-241.612 818.117,-241.612 824.117,-247.612 824.117,-253.612 824.117,-253.612 824.117,-265.612 824.117,-265.612 824.117,-271.612 818.117,-277.612 812.117,-277.612"/>
<text text-anchor="middle" x="739.617" y="-255.912" font-family="Roboto" font-size="14.00">Uitwisselingsinformatie</text>
</a>
</g>
</g>
<!-- 1946&#45;&gt;1938 -->
<g id="edge10" class="edge"><title>1946&#45;&gt;1938</title>
<path fill="none" stroke="blue" d="M700.67,-319.412C707.088,-309.558 715.155,-297.17 722.281,-286.23"/>
<polygon fill="none" stroke="blue" points="725.219,-288.131 727.744,-277.841 719.354,-284.311 725.219,-288.131"/>
</g>
<!-- 1826 -->
<g id="node13" class="node"><title>1826</title>
<g id="a_node13"><a xlink:title=" ">
<path fill="#ffff99" stroke="black" d="M605.338,-756.033C605.338,-756.033 456.338,-756.033 456.338,-756.033 450.338,-756.033 444.338,-750.033 444.338,-744.033 444.338,-744.033 444.338,-732.033 444.338,-732.033 444.338,-726.033 450.338,-720.033 456.338,-720.033 456.338,-720.033 605.338,-720.033 605.338,-720.033 611.338,-720.033 617.338,-726.033 617.338,-732.033 617.338,-732.033 617.338,-744.033 617.338,-744.033 617.338,-750.033 611.338,-756.033 605.338,-756.033"/>
<text text-anchor="middle" x="530.838" y="-734.333" font-family="Roboto" font-size="14.00">Uitslag eigen onderzoek</text>
</a>
</g>
</g>
<!-- 1826&#45;&gt;1766 -->
<g id="edge13" class="edge"><title>1826&#45;&gt;1766</title>
<path fill="none" stroke="blue" d="M517.365,-719.82C478.212,-666.894 364.326,-512.945 318.415,-450.884"/>
<polygon fill="none" stroke="blue" points="321.164,-448.715 312.403,-442.757 315.537,-452.878 321.164,-448.715"/>
</g>
<!-- 1821 -->
<g id="node14" class="node"><title>1821</title>
<g id="a_node14"><a xlink:title="Resultaat van waarnemingen (=observaties) van bepaalde lichamelijke functies zoals ademhaling, bloeddruk, hartslag, temperatuur, vochtbalans, reflexen of andere aspecten van lichamelijk functioneren.&#10;Waarnemingen kunnen worden gedaan in het kader van lichamelijk onderzoek of als onderdeel van anamnese, behandelplan of verpleegplan.&#10;Een waarneming kan gedaan worden door een mens of door een apparaat.&#10; ">
<path fill="#ffff99" stroke="black" d="M424.279,-737.263C424.279,-737.263 241.279,-737.263 241.279,-737.263 235.279,-737.263 229.279,-731.263 229.279,-725.263 229.279,-725.263 229.279,-713.263 229.279,-713.263 229.279,-707.263 235.279,-701.263 241.279,-701.263 241.279,-701.263 424.279,-701.263 424.279,-701.263 430.279,-701.263 436.279,-707.263 436.279,-713.263 436.279,-713.263 436.279,-725.263 436.279,-725.263 436.279,-731.263 430.279,-737.263 424.279,-737.263"/>
<text text-anchor="middle" x="332.779" y="-715.563" font-family="Roboto" font-size="14.00">Uitslag lichamelijk onderzoek</text>
</a>
</g>
</g>
<!-- 1821&#45;&gt;1766 -->
<g id="edge14" class="edge"><title>1821&#45;&gt;1766</title>
<path fill="none" stroke="blue" d="M330.659,-700.824C324.916,-650.871 309.03,-512.674 302.145,-452.783"/>
<polygon fill="none" stroke="blue" points="305.588,-452.085 300.969,-442.55 298.634,-452.884 305.588,-452.085"/>
</g>
<!-- 1723 -->
<g id="node15" class="node"><title>1723</title>
<g id="a_node15"><a xlink:title=" ">
<path fill="#ffff99" stroke="black" d="M223.932,-510.552C223.932,-510.552 182.932,-510.552 182.932,-510.552 176.932,-510.552 170.932,-504.552 170.932,-498.552 170.932,-498.552 170.932,-486.552 170.932,-486.552 170.932,-480.552 176.932,-474.552 182.932,-474.552 182.932,-474.552 223.932,-474.552 223.932,-474.552 229.932,-474.552 235.932,-480.552 235.932,-486.552 235.932,-486.552 235.932,-498.552 235.932,-498.552 235.932,-504.552 229.932,-510.552 223.932,-510.552"/>
<text text-anchor="middle" x="203.432" y="-488.852" font-family="Roboto" font-size="14.00">Verslag</text>
</a>
</g>
</g>
<!-- 1723&#45;&gt;1766 -->
<g id="edge12" class="edge"><title>1723&#45;&gt;1766</title>
<path fill="none" stroke="blue" d="M228.763,-474.493C239.875,-466.571 253.082,-457.155 265.022,-448.643"/>
<polygon fill="none" stroke="blue" points="267.333,-451.293 273.444,-442.638 263.269,-445.594 267.333,-451.293"/>
</g>
<!-- 2166 -->
<g id="node16" class="node"><title>2166</title>
<g id="a_node16"><a xlink:title=" ">
<path fill="#ffff99" stroke="black" d="M424.371,-844.037C424.371,-844.037 305.371,-844.037 305.371,-844.037 299.371,-844.037 293.371,-838.037 293.371,-832.037 293.371,-832.037 293.371,-820.037 293.371,-820.037 293.371,-814.037 299.371,-808.037 305.371,-808.037 305.371,-808.037 424.371,-808.037 424.371,-808.037 430.371,-808.037 436.371,-814.037 436.371,-820.037 436.371,-820.037 436.371,-832.037 436.371,-832.037 436.371,-838.037 430.371,-844.037 424.371,-844.037"/>
<text text-anchor="middle" x="364.871" y="-822.337" font-family="Roboto" font-size="14.00">Verzorgingsverslag</text>
</a>
</g>
</g>
<!-- 2166&#45;&gt;1723 -->
<g id="edge15" class="edge"><title>2166&#45;&gt;1723</title>
<path fill="none" stroke="blue" d="M360.65,-807.999C355.986,-792.256 346.863,-770.093 330.445,-758.01 292.562,-730.131 256.456,-776.374 226.079,-740.463 223.036,-736.866 225.454,-702.733 226.079,-698.063 229.084,-675.589 236.477,-671.313 239.482,-648.839 241.979,-630.161 242.359,-625.063 239.482,-606.439 234.793,-576.088 223.466,-542.742 214.749,-520.022"/>
<polygon fill="none" stroke="blue" points="217.994,-518.708 211.081,-510.678 211.478,-521.266 217.994,-518.708"/>
</g>
<!-- 2165 -->
<g id="node17" class="node"><title>2165</title>
<g id="a_node17"><a xlink:title=" ">
<path fill="#ffff99" stroke="black" d="M315.245,-797.21C315.245,-797.21 152.245,-797.21 152.245,-797.21 146.245,-797.21 140.245,-791.21 140.245,-785.21 140.245,-785.21 140.245,-773.21 140.245,-773.21 140.245,-767.21 146.245,-761.21 152.245,-761.21 152.245,-761.21 315.245,-761.21 315.245,-761.21 321.245,-761.21 327.245,-767.21 327.245,-773.21 327.245,-773.21 327.245,-785.21 327.245,-785.21 327.245,-791.21 321.245,-797.21 315.245,-797.21"/>
<text text-anchor="middle" x="233.745" y="-775.51" font-family="Roboto" font-size="14.00">Verpleegkundige Evaluatie</text>
</a>
</g>
</g>
<!-- 2165&#45;&gt;1723 -->
<g id="edge16" class="edge"><title>2165&#45;&gt;1723</title>
<path fill="none" stroke="blue" d="M229.419,-761.184C228.063,-754.693 226.747,-747.288 226.079,-740.463 224.241,-721.709 223.581,-716.741 226.079,-698.063 229.084,-675.589 236.477,-671.313 239.482,-648.839 241.979,-630.161 242.359,-625.063 239.482,-606.439 234.793,-576.088 223.466,-542.742 214.749,-520.022"/>
<polygon fill="none" stroke="blue" points="217.994,-518.708 211.081,-510.678 211.478,-521.266 217.994,-518.708"/>
</g>
<!-- 2163 -->
<g id="node18" class="node"><title>2163</title>
<g id="a_node18"><a xlink:title=" ">
<path fill="#ffff99" stroke="black" d="M1014.07,-755.752C1014.07,-755.752 848.074,-755.752 848.074,-755.752 842.074,-755.752 836.074,-749.752 836.074,-743.752 836.074,-743.752 836.074,-731.752 836.074,-731.752 836.074,-725.752 842.074,-719.752 848.074,-719.752 848.074,-719.752 1014.07,-719.752 1014.07,-719.752 1020.07,-719.752 1026.07,-725.752 1026.07,-731.752 1026.07,-731.752 1026.07,-743.752 1026.07,-743.752 1026.07,-749.752 1020.07,-755.752 1014.07,-755.752"/>
<text text-anchor="middle" x="931.074" y="-734.052" font-family="Roboto" font-size="14.00">Verpleegkundige Diagnose</text>
</a>
</g>
</g>
<!-- 2163&#45;&gt;1983 -->
<g id="edge17" class="edge"><title>2163&#45;&gt;1983</title>
<path fill="none" stroke="blue" d="M920.638,-719.513C913.615,-707.238 904.229,-690.833 896.322,-677.013"/>
<polygon fill="none" stroke="blue" points="899.135,-674.882 891.131,-667.941 893.059,-678.358 899.135,-674.882"/>
</g>
<!-- 2084 -->
<g id="node19" class="node"><title>2084</title>
<g id="a_node19"><a xlink:title="@MZ: Brief is verslag met een header, geadresseerde enz. ">
<path fill="#ffff99" stroke="black" d="M894.469,-170.376C894.469,-170.376 864.469,-170.376 864.469,-170.376 858.469,-170.376 852.469,-164.376 852.469,-158.376 852.469,-158.376 852.469,-146.376 852.469,-146.376 852.469,-140.376 858.469,-134.376 864.469,-134.376 864.469,-134.376 894.469,-134.376 894.469,-134.376 900.469,-134.376 906.469,-140.376 906.469,-146.376 906.469,-146.376 906.469,-158.376 906.469,-158.376 906.469,-164.376 900.469,-170.376 894.469,-170.376"/>
<text text-anchor="middle" x="879.469" y="-148.676" font-family="Roboto" font-size="14.00">Brief</text>
</a>
</g>
</g>
<!-- 2084&#45;&gt;1938 -->
<g id="edge39" class="edge"><title>2084&#45;&gt;1938</title>
<path fill="none" stroke="blue" d="M852.359,-156.456C840.905,-159.619 828.532,-165.231 821.149,-175.186 814.667,-183.924 823.543,-215.073 817.313,-223.992 814.258,-228.365 810.529,-232.213 806.375,-235.597"/>
<polygon fill="none" stroke="blue" points="804.088,-232.926 797.929,-241.547 808.12,-238.649 804.088,-232.926"/>
</g>
<!-- 2080 -->
<g id="node20" class="node"><title>2080</title>
<g id="a_node20"><a xlink:title=" ">
<path fill="#ffff99" stroke="black" d="M209.206,-752.357C209.206,-752.357 122.206,-752.357 122.206,-752.357 116.206,-752.357 110.206,-746.357 110.206,-740.357 110.206,-740.357 110.206,-728.357 110.206,-728.357 110.206,-722.357 116.206,-716.357 122.206,-716.357 122.206,-716.357 209.206,-716.357 209.206,-716.357 215.206,-716.357 221.206,-722.357 221.206,-728.357 221.206,-728.357 221.206,-740.357 221.206,-740.357 221.206,-746.357 215.206,-752.357 209.206,-752.357"/>
<text text-anchor="middle" x="165.706" y="-730.657" font-family="Roboto" font-size="14.00">Advies verslag</text>
</a>
</g>
</g>
<!-- 2080&#45;&gt;1723 -->
<g id="edge18" class="edge"><title>2080&#45;&gt;1723</title>
<path fill="none" stroke="blue" d="M202.17,-716.111C206.605,-712.926 210.805,-709.342 214.328,-705.373 232.584,-684.806 233.767,-675.74 239.482,-648.839 249.088,-603.616 231.07,-551.314 217.22,-520.137"/>
<polygon fill="none" stroke="blue" points="220.276,-518.407 212.909,-510.793 213.92,-521.339 220.276,-518.407"/>
</g>
<!-- 1924 -->
<g id="node21" class="node"><title>1924</title>
<g id="a_node21"><a xlink:title="Een selectie van gegevens uit het dossier bestemd voor de overdracht van de patient ">
<path fill="#ffff99" stroke="black" d="M973.349,-214.386C973.349,-214.386 836.349,-214.386 836.349,-214.386 830.349,-214.386 824.349,-208.386 824.349,-202.386 824.349,-202.386 824.349,-190.386 824.349,-190.386 824.349,-184.386 830.349,-178.386 836.349,-178.386 836.349,-178.386 973.349,-178.386 973.349,-178.386 979.349,-178.386 985.349,-184.386 985.349,-190.386 985.349,-190.386 985.349,-202.386 985.349,-202.386 985.349,-208.386 979.349,-214.386 973.349,-214.386"/>
<text text-anchor="middle" x="904.849" y="-192.686" font-family="Roboto" font-size="14.00">Overdrachtsinformatie</text>
</a>
</g>
</g>
<!-- 1924&#45;&gt;1938 -->
<g id="edge19" class="edge"><title>1924&#45;&gt;1938</title>
<path fill="none" stroke="blue" d="M843.481,-214.444C838.607,-216.095 833.78,-217.801 829.147,-219.539 815.026,-224.835 799.961,-231.263 786.294,-237.405"/>
<polygon fill="none" stroke="blue" points="784.738,-234.268 777.084,-241.595 787.636,-240.64 784.738,-234.268"/>
</g>
<!-- 1854 -->
<g id="node22" class="node"><title>1854</title>
<g id="a_node22"><a xlink:title="Externe (medische) broninformatie van de patient. ">
<path fill="#ffff99" stroke="black" d="M1003.35,-258.739C1003.35,-258.739 844.347,-258.739 844.347,-258.739 838.347,-258.739 832.347,-252.739 832.347,-246.739 832.347,-246.739 832.347,-234.739 832.347,-234.739 832.347,-228.739 838.347,-222.739 844.347,-222.739 844.347,-222.739 1003.35,-222.739 1003.35,-222.739 1009.35,-222.739 1015.35,-228.739 1015.35,-234.739 1015.35,-234.739 1015.35,-246.739 1015.35,-246.739 1015.35,-252.739 1009.35,-258.739 1003.35,-258.739"/>
<text text-anchor="middle" x="923.847" y="-237.039" font-family="Roboto" font-size="14.00">Externe informatie Patient</text>
</a>
</g>
</g>
<!-- 1854&#45;&gt;1938 -->
<g id="edge20" class="edge"><title>1854&#45;&gt;1938</title>
<path fill="none" stroke="blue" d="M832.272,-250.12C832.187,-250.129 832.103,-250.137 832.018,-250.146"/>
<polygon fill="none" stroke="blue" points="833.743,-246.451 824.152,-250.952 834.457,-253.414 833.743,-246.451"/>
</g>
<!-- 1779 -->
<g id="node23" class="node"><title>1779</title>
<g id="a_node23"><a xlink:title="Met elkaar samenhangende tekst en/of data en/of beelden bestaande uit een combinatie van aanvraaggegevens, beschrijving van het onderzoeksproces, ruwe onderzoeksgegevens en beoordeling van deze gegevens met bijbehorende motivatie. ">
<path fill="#ffff99" stroke="black" d="M199.128,-702.173C199.128,-702.173 82.1281,-702.173 82.1281,-702.173 76.1281,-702.173 70.1281,-696.173 70.1281,-690.173 70.1281,-690.173 70.1281,-678.173 70.1281,-678.173 70.1281,-672.173 76.1281,-666.173 82.1281,-666.173 82.1281,-666.173 199.128,-666.173 199.128,-666.173 205.128,-666.173 211.128,-672.173 211.128,-678.173 211.128,-678.173 211.128,-690.173 211.128,-690.173 211.128,-696.173 205.128,-702.173 199.128,-702.173"/>
<text text-anchor="middle" x="140.628" y="-680.473" font-family="Roboto" font-size="14.00">Onderzoeksverslag</text>
</a>
</g>
</g>
<!-- 1779&#45;&gt;1723 -->
<g id="edge21" class="edge"><title>1779&#45;&gt;1723</title>
<path fill="none" stroke="blue" d="M211.212,-671.156C222.326,-665.999 232.449,-658.821 239.482,-648.839 267.041,-609.721 241.357,-552.698 221.493,-519.434"/>
<polygon fill="none" stroke="blue" points="224.335,-517.375 216.094,-510.717 218.384,-521.061 224.335,-517.375"/>
</g>
<!-- 1848&#45;&gt;1723 -->
<g id="edge22" class="edge"><title>1848&#45;&gt;1723</title>
<path fill="none" stroke="blue" d="M903.273,-341.868C885.314,-349.386 863.986,-357.94 844.406,-364.819 691.807,-418.432 650.801,-425.557 491.574,-453.972 404.807,-469.457 302.335,-481.768 245.96,-488.03"/>
<polygon fill="none" stroke="blue" points="245.541,-484.555 235.984,-489.128 246.307,-491.513 245.541,-484.555"/>
</g>
<!-- 1715 -->
<g id="node25" class="node"><title>1715</title>
<g id="a_node25"><a xlink:title="Weergave van bevindingen uit preoperatieve screening. ">
<path fill="#ffff99" stroke="black" d="M224.282,-645.639C224.282,-645.639 27.2816,-645.639 27.2816,-645.639 21.2816,-645.639 15.2816,-639.639 15.2816,-633.639 15.2816,-633.639 15.2816,-621.639 15.2816,-621.639 15.2816,-615.639 21.2816,-609.639 27.2816,-609.639 27.2816,-609.639 224.282,-609.639 224.282,-609.639 230.282,-609.639 236.282,-615.639 236.282,-621.639 236.282,-621.639 236.282,-633.639 236.282,-633.639 236.282,-639.639 230.282,-645.639 224.282,-645.639"/>
<text text-anchor="middle" x="125.782" y="-623.939" font-family="Roboto" font-size="14.00">Preoperatieve screeningverslag</text>
</a>
</g>
</g>
<!-- 1715&#45;&gt;1723 -->
<g id="edge24" class="edge"><title>1715&#45;&gt;1723</title>
<path fill="none" stroke="blue" d="M153.982,-609.623C162.926,-602.676 172.116,-594.042 178.415,-584.302 190.822,-565.118 197.126,-539.867 200.299,-520.712"/>
<polygon fill="none" stroke="blue" points="203.768,-521.177 201.759,-510.775 196.843,-520.16 203.768,-521.177"/>
</g>
<!-- 2143 -->
<g id="node26" class="node"><title>2143</title>
<g id="a_node26"><a xlink:title=" ">
<path fill="#ffff99" stroke="black" d="M368.868,-192.048C368.868,-192.048 195.868,-192.048 195.868,-192.048 189.868,-192.048 183.868,-186.048 183.868,-180.048 183.868,-180.048 183.868,-168.048 183.868,-168.048 183.868,-162.048 189.868,-156.048 195.868,-156.048 195.868,-156.048 368.868,-156.048 368.868,-156.048 374.868,-156.048 380.868,-162.048 380.868,-168.048 380.868,-168.048 380.868,-180.048 380.868,-180.048 380.868,-186.048 374.868,-192.048 368.868,-192.048"/>
<text text-anchor="middle" x="282.368" y="-170.348" font-family="Roboto" font-size="14.00">Resultaat Collegiaal Consult</text>
</a>
</g>
</g>
<!-- 2143&#45;&gt;1766 -->
<g id="edge25" class="edge"><title>2143&#45;&gt;1766</title>
<path fill="none" stroke="blue" d="M283.557,-192.06C286.396,-235.096 293.593,-344.172 297.022,-396.133"/>
<polygon fill="none" stroke="blue" points="293.542,-396.562 297.693,-406.31 300.527,-396.101 293.542,-396.562"/>
</g>
<!-- 2172 -->
<g id="node27" class="node"><title>2172</title>
<g id="a_node27"><a xlink:title="Synoniem is ruwe uitslag. ">
<path fill="#ffff99" stroke="black" d="M312.606,-148.026C312.606,-148.026 274.606,-148.026 274.606,-148.026 268.606,-148.026 262.606,-142.026 262.606,-136.026 262.606,-136.026 262.606,-124.026 262.606,-124.026 262.606,-118.026 268.606,-112.026 274.606,-112.026 274.606,-112.026 312.606,-112.026 312.606,-112.026 318.606,-112.026 324.606,-118.026 324.606,-124.026 324.606,-124.026 324.606,-136.026 324.606,-136.026 324.606,-142.026 318.606,-148.026 312.606,-148.026"/>
<text text-anchor="middle" x="293.606" y="-126.326" font-family="Roboto" font-size="14.00">Meting</text>
</a>
</g>
</g>
<!-- 2172&#45;&gt;1766 -->
<g id="edge26" class="edge"><title>2172&#45;&gt;1766</title>
<path fill="none" stroke="blue" d="M324.792,-128.864C345.118,-129.961 370.332,-135.215 384.068,-152.848 443.197,-228.747 363.153,-346.287 321.402,-398.255"/>
<polygon fill="none" stroke="blue" points="318.439,-396.35 314.816,-406.306 323.857,-400.782 318.439,-396.35"/>
</g>
<!-- 2173 -->
<g id="node28" class="node"><title>2173</title>
<g id="a_node28"><a xlink:title=" ">
<path fill="#ffff99" stroke="black" d="M370.656,-103.987C370.656,-103.987 340.656,-103.987 340.656,-103.987 334.656,-103.987 328.656,-97.9867 328.656,-91.9867 328.656,-91.9867 328.656,-79.9867 328.656,-79.9867 328.656,-73.9867 334.656,-67.9867 340.656,-67.9867 340.656,-67.9867 370.656,-67.9867 370.656,-67.9867 376.656,-67.9867 382.656,-73.9867 382.656,-79.9867 382.656,-79.9867 382.656,-91.9867 382.656,-91.9867 382.656,-97.9867 376.656,-103.987 370.656,-103.987"/>
<text text-anchor="middle" x="355.656" y="-82.2867" font-family="Roboto" font-size="14.00">Score</text>
</a>
</g>
</g>
<!-- 2173&#45;&gt;1766 -->
<g id="edge27" class="edge"><title>2173&#45;&gt;1766</title>
<path fill="none" stroke="blue" d="M365.7,-104.072C372.377,-117.172 380.545,-135.546 384.068,-152.848 387.829,-171.314 387.403,-176.701 384.068,-195.248 370.374,-271.428 332.991,-355.362 312.602,-397.375"/>
<polygon fill="none" stroke="blue" points="309.433,-395.888 308.165,-406.407 315.716,-398.974 309.433,-395.888"/>
</g>
<!-- 1695 -->
<g id="node29" class="node"><title>1695</title>
<g id="a_node29"><a xlink:title="Weergave van het verloop van een uitgevoerde operatie, uitgevoerde verrichtingen, toegediende en verloren lichaamsmaterialen (vocht, bloed etc.), eventuele complicaties en eindresultaat van een operatie. ">
<path fill="#ffff99" stroke="black" d="M163.215,-581.102C163.215,-581.102 69.2155,-581.102 69.2155,-581.102 63.2155,-581.102 57.2155,-575.102 57.2155,-569.102 57.2155,-569.102 57.2155,-557.102 57.2155,-557.102 57.2155,-551.102 63.2155,-545.102 69.2155,-545.102 69.2155,-545.102 163.215,-545.102 163.215,-545.102 169.215,-545.102 175.215,-551.102 175.215,-557.102 175.215,-557.102 175.215,-569.102 175.215,-569.102 175.215,-575.102 169.215,-581.102 163.215,-581.102"/>
<text text-anchor="middle" x="116.215" y="-559.402" font-family="Roboto" font-size="14.00">Operatieverslag</text>
</a>
</g>
</g>
<!-- 1695&#45;&gt;1723 -->
<g id="edge28" class="edge"><title>1695&#45;&gt;1723</title>
<path fill="none" stroke="blue" d="M138.676,-544.934C149.154,-536.458 161.782,-526.243 173.094,-517.093"/>
<polygon fill="none" stroke="blue" points="175.474,-519.669 181.048,-510.659 171.072,-514.227 175.474,-519.669"/>
</g>
<!-- 2182 -->
<g id="node30" class="node"><title>2182</title>
<g id="a_node30"><a xlink:title="Gesprek met de pati?nt bij het be?indigen van zorgverlening, waarin informatie wordt verstrekt over nazorg en waarin de mening en ervaringen van de pati?nt aan bod kan komen over verleende zorg. ">
<path fill="#ffff99" stroke="black" d="M147.796,-509.793C147.796,-509.793 49.7962,-509.793 49.7962,-509.793 43.7962,-509.793 37.7962,-503.793 37.7962,-497.793 37.7962,-497.793 37.7962,-485.793 37.7962,-485.793 37.7962,-479.793 43.7962,-473.793 49.7962,-473.793 49.7962,-473.793 147.796,-473.793 147.796,-473.793 153.796,-473.793 159.796,-479.793 159.796,-485.793 159.796,-485.793 159.796,-497.793 159.796,-497.793 159.796,-503.793 153.796,-509.793 147.796,-509.793"/>
<text text-anchor="middle" x="98.7962" y="-488.093" font-family="Roboto" font-size="14.00">Evaluatieverslag</text>
</a>
</g>
</g>
<!-- 2182&#45;&gt;1723 -->
<g id="edge29" class="edge"><title>2182&#45;&gt;1723</title>
<path fill="none" stroke="blue" d="M159.966,-492.237C160.195,-492.238 160.424,-492.24 160.653,-492.242"/>
<polygon fill="none" stroke="blue" points="160.689,-495.742 170.714,-492.315 160.74,-488.742 160.689,-495.742"/>
</g>
<!-- 2180 -->
<g id="node31" class="node"><title>2180</title>
<g id="a_node31"><a xlink:title=" ">
<path fill="#ffff99" stroke="black" d="M1199.79,-296.878C1199.79,-296.878 1035.79,-296.878 1035.79,-296.878 1029.79,-296.878 1023.79,-290.878 1023.79,-284.878 1023.79,-284.878 1023.79,-272.878 1023.79,-272.878 1023.79,-266.878 1029.79,-260.878 1035.79,-260.878 1035.79,-260.878 1199.79,-260.878 1199.79,-260.878 1205.79,-260.878 1211.79,-266.878 1211.79,-272.878 1211.79,-272.878 1211.79,-284.878 1211.79,-284.878 1211.79,-290.878 1205.79,-296.878 1199.79,-296.878"/>
<text text-anchor="middle" x="1117.79" y="-275.178" font-family="Roboto" font-size="14.00">Therapeutische Anamnese</text>
</a>
</g>
</g>
<!-- 2180&#45;&gt;1848 -->
<g id="edge30" class="edge"><title>2180&#45;&gt;1848</title>
<path fill="none" stroke="blue" d="M1048.01,-296.993C1039.73,-299.142 1031.24,-301.347 1022.86,-303.523"/>
<polygon fill="none" stroke="blue" points="1021.88,-300.16 1013.08,-306.06 1023.64,-306.935 1021.88,-300.16"/>
</g>
<!-- 2178 -->
<g id="node32" class="node"><title>2178</title>
<g id="a_node32"><a xlink:title=" ">
<path fill="#ffff99" stroke="black" d="M142.553,-440.532C142.553,-440.532 46.553,-440.532 46.553,-440.532 40.553,-440.532 34.553,-434.532 34.553,-428.532 34.553,-428.532 34.553,-416.532 34.553,-416.532 34.553,-410.532 40.553,-404.532 46.553,-404.532 46.553,-404.532 142.553,-404.532 142.553,-404.532 148.553,-404.532 154.553,-410.532 154.553,-416.532 154.553,-416.532 154.553,-428.532 154.553,-428.532 154.553,-434.532 148.553,-440.532 142.553,-440.532"/>
<text text-anchor="middle" x="94.553" y="-418.832" font-family="Roboto" font-size="14.00">Therapieverslag</text>
</a>
</g>
</g>
<!-- 2178&#45;&gt;1723 -->
<g id="edge31" class="edge"><title>2178&#45;&gt;1723</title>
<path fill="none" stroke="blue" d="M122.592,-440.564C135.95,-449.154 152.106,-459.544 166.452,-468.77"/>
<polygon fill="none" stroke="blue" points="164.806,-471.873 175.11,-474.338 168.592,-465.985 164.806,-471.873"/>
</g>
<!-- 2176 -->
<g id="node33" class="node"><title>2176</title>
<g id="a_node33"><a xlink:title=" ">
<path fill="#ffff99" stroke="black" d="M930.511,-799.799C930.511,-799.799 773.511,-799.799 773.511,-799.799 767.511,-799.799 761.511,-793.799 761.511,-787.799 761.511,-787.799 761.511,-775.799 761.511,-775.799 761.511,-769.799 767.511,-763.799 773.511,-763.799 773.511,-763.799 930.511,-763.799 930.511,-763.799 936.511,-763.799 942.511,-769.799 942.511,-775.799 942.511,-775.799 942.511,-787.799 942.511,-787.799 942.511,-793.799 936.511,-799.799 930.511,-799.799"/>
<text text-anchor="middle" x="852.011" y="-778.099" font-family="Roboto" font-size="14.00">Therapeutische Diagnose</text>
</a>
</g>
</g>
<!-- 2176&#45;&gt;1983 -->
<g id="edge32" class="edge"><title>2176&#45;&gt;1983</title>
<path fill="none" stroke="blue" d="M835.153,-763.784C834.254,-762.223 833.475,-760.606 832.874,-758.952 826.437,-741.242 820.348,-730.631 832.874,-716.552 834.927,-714.245 844.135,-716.688 846.679,-714.936 859.417,-706.162 867.719,-691.092 872.932,-677.648"/>
<polygon fill="none" stroke="blue" points="876.372,-678.41 876.338,-667.816 869.757,-676.119 876.372,-678.41"/>
</g>
<!-- 2014 -->
<g id="node34" class="node"><title>2014</title>
<g id="a_node34"><a xlink:title="Achtergrond en voorgeschiedenis van een pati?nt, achterhaald via systematische ondervraging, op moment van klinische intake/opname, gebruikt bij opstellen van verpleegkundig behandelplan.&#10;&#10;Dit bevat waarneming lichaamfuncties en andere resultaten&#10;Inclusief mogelijk Dieet &amp; Complicaties ">
<path fill="#ffff99" stroke="black" d="M1205.16,-369.748C1205.16,-369.748 1033.16,-369.748 1033.16,-369.748 1027.16,-369.748 1021.16,-363.748 1021.16,-357.748 1021.16,-357.748 1021.16,-345.748 1021.16,-345.748 1021.16,-339.748 1027.16,-333.748 1033.16,-333.748 1033.16,-333.748 1205.16,-333.748 1205.16,-333.748 1211.16,-333.748 1217.16,-339.748 1217.16,-345.748 1217.16,-345.748 1217.16,-357.748 1217.16,-357.748 1217.16,-363.748 1211.16,-369.748 1205.16,-369.748"/>
<text text-anchor="middle" x="1119.16" y="-348.048" font-family="Roboto" font-size="14.00">Verpleegkundige anamnese</text>
</a>
</g>
</g>
<!-- 2014&#45;&gt;1848 -->
<g id="edge33" class="edge"><title>2014&#45;&gt;1848</title>
<path fill="none" stroke="blue" d="M1021.14,-335.98C1020.98,-335.953 1020.81,-335.927 1020.65,-335.901"/>
<polygon fill="none" stroke="blue" points="1023.73,-332.852 1013.3,-334.719 1022.62,-339.763 1023.73,-332.852"/>
</g>
<!-- 2162 -->
<g id="node35" class="node"><title>2162</title>
<g id="a_node35"><a xlink:title=" ">
<path fill="#ffff99" stroke="black" d="M146.825,-372.787C146.825,-372.787 46.8247,-372.787 46.8247,-372.787 40.8247,-372.787 34.8247,-366.787 34.8247,-360.787 34.8247,-360.787 34.8247,-348.787 34.8247,-348.787 34.8247,-342.787 40.8247,-336.787 46.8247,-336.787 46.8247,-336.787 146.825,-336.787 146.825,-336.787 152.825,-336.787 158.825,-342.787 158.825,-348.787 158.825,-348.787 158.825,-360.787 158.825,-360.787 158.825,-366.787 152.825,-372.787 146.825,-372.787"/>
<text text-anchor="middle" x="96.8247" y="-351.087" font-family="Roboto" font-size="14.00">Behandelverslag</text>
</a>
</g>
</g>
<!-- 2162&#45;&gt;1723 -->
<g id="edge34" class="edge"><title>2162&#45;&gt;1723</title>
<path fill="none" stroke="blue" d="M125.8,-372.805C136.765,-380.614 148.757,-390.462 157.753,-401.332 173.524,-420.388 185.682,-445.8 193.476,-464.962"/>
<polygon fill="none" stroke="blue" points="190.245,-466.311 197.15,-474.347 196.763,-463.759 190.245,-466.311"/>
</g>
<!-- 1693 -->
<g id="node36" class="node"><title>1693</title>
<g id="a_node36"><a xlink:title="Schema waarop de verdeling van het werk over personen, middelen en/of locatie uitgedrukt in tijd is aangegeven&#10;&#10;Gaat over beschikbaarheid van 1 of meer resources. ">
<path fill="#ffff99" stroke="black" d="M1237.41,-450.811C1237.41,-450.811 1194.41,-450.811 1194.41,-450.811 1188.41,-450.811 1182.41,-444.811 1182.41,-438.811 1182.41,-438.811 1182.41,-426.811 1182.41,-426.811 1182.41,-420.811 1188.41,-414.811 1194.41,-414.811 1194.41,-414.811 1237.41,-414.811 1237.41,-414.811 1243.41,-414.811 1249.41,-420.811 1249.41,-426.811 1249.41,-426.811 1249.41,-438.811 1249.41,-438.811 1249.41,-444.811 1243.41,-450.811 1237.41,-450.811"/>
<text text-anchor="middle" x="1215.91" y="-429.111" font-family="Roboto" font-size="14.00">Rooster</text>
</a>
</g>
</g>
<!-- 1693&#45;&gt;1684 -->
<g id="edge35" class="edge"><title>1693&#45;&gt;1684</title>
<path fill="none" stroke="lightgray" d="M1182.15,-448.427C1166.48,-455.677 1147.56,-464.429 1130.41,-472.362"/>
<polygon fill="lightgray" stroke="lightgray" points="1121.1,-476.669 1128.29,-468.387 1125.64,-474.57 1130.18,-472.471 1130.18,-472.471 1130.18,-472.471 1125.64,-474.57 1132.07,-476.555 1121.1,-476.669 1121.1,-476.669"/>
<text text-anchor="middle" x="1123.94" y="-451.436" font-family="Roboto" font-size="14.00">hoort bij</text>
</g>
<!-- 1710 -->
<g id="node37" class="node"><title>1710</title>
<g id="a_node37"><a xlink:title="Spullen, goederen, apparaat ">
<path fill="#ffff99" stroke="black" d="M1211.07,-541.496C1211.07,-541.496 1174.07,-541.496 1174.07,-541.496 1168.07,-541.496 1162.07,-535.496 1162.07,-529.496 1162.07,-529.496 1162.07,-517.496 1162.07,-517.496 1162.07,-511.496 1168.07,-505.496 1174.07,-505.496 1174.07,-505.496 1211.07,-505.496 1211.07,-505.496 1217.07,-505.496 1223.07,-511.496 1223.07,-517.496 1223.07,-517.496 1223.07,-529.496 1223.07,-529.496 1223.07,-535.496 1217.07,-541.496 1211.07,-541.496"/>
<text text-anchor="middle" x="1192.57" y="-519.796" font-family="Roboto" font-size="14.00">Middel</text>
</a>
</g>
</g>
<!-- 1710&#45;&gt;1684 -->
<g id="edge37" class="edge"><title>1710&#45;&gt;1684</title>
<path fill="none" stroke="blue" d="M1161.81,-515.473C1152.23,-512.975 1141.43,-510.156 1130.93,-507.42"/>
<polygon fill="none" stroke="blue" points="1131.58,-503.972 1121.02,-504.834 1129.81,-510.745 1131.58,-503.972"/>
</g>
<!-- 1726 -->
<g id="node38" class="node"><title>1726</title>
<g id="a_node38"><a xlink:title=" ">
<path fill="#ffff99" stroke="black" d="M983.944,-508.958C983.944,-508.958 936.944,-508.958 936.944,-508.958 930.944,-508.958 924.944,-502.958 924.944,-496.958 924.944,-496.958 924.944,-484.958 924.944,-484.958 924.944,-478.958 930.944,-472.958 936.944,-472.958 936.944,-472.958 983.944,-472.958 983.944,-472.958 989.944,-472.958 995.944,-478.958 995.944,-484.958 995.944,-484.958 995.944,-496.958 995.944,-496.958 995.944,-502.958 989.944,-508.958 983.944,-508.958"/>
<text text-anchor="middle" x="960.444" y="-487.258" font-family="Roboto" font-size="14.00">Persoon</text>
</a>
</g>
</g>
<!-- 1726&#45;&gt;1684 -->
<g id="edge38" class="edge"><title>1726&#45;&gt;1684</title>
<path fill="none" stroke="blue" d="M995.971,-492.048C1007.59,-492.405 1020.71,-492.807 1033.14,-493.189"/>
<polygon fill="none" stroke="blue" points="1033.27,-496.695 1043.38,-493.503 1033.49,-489.698 1033.27,-496.695"/>
</g>
<!-- 1688 -->
<g id="node39" class="node"><title>1688</title>
<g id="a_node39"><a xlink:title="Details van een afspraak tussen een patient en een of meerdere zorgverleners ">
<path fill="#ffff99" stroke="black" d="M452.701,-71.979C452.701,-71.979 402.701,-71.979 402.701,-71.979 396.701,-71.979 390.701,-65.979 390.701,-59.979 390.701,-59.979 390.701,-47.979 390.701,-47.979 390.701,-41.979 396.701,-35.979 402.701,-35.979 402.701,-35.979 452.701,-35.979 452.701,-35.979 458.701,-35.979 464.701,-41.979 464.701,-47.979 464.701,-47.979 464.701,-59.979 464.701,-59.979 464.701,-65.979 458.701,-71.979 452.701,-71.979"/>
<text text-anchor="middle" x="427.701" y="-50.279" font-family="Roboto" font-size="14.00">Afspraak</text>
</a>
</g>
</g>
<!-- 1688&#45;&gt;1766 -->
<g id="edge9" class="edge"><title>1688&#45;&gt;1766</title>
<path fill="none" stroke="blue" d="M422.379,-72.3719C414.468,-99.4326 398.938,-151.502 384.068,-195.248 359.085,-268.749 326.34,-354.2 309.664,-397.037"/>
<polygon fill="none" stroke="blue" points="306.351,-395.902 305.976,-406.49 312.872,-398.446 306.351,-395.902"/>
</g>
<!-- 2148 -->
<g id="node40" class="node"><title>2148</title>
<g id="a_node40"><a xlink:title="Aandoeningen, ziekte of klacht (= indicatie) waarbij bepaalde medicatie, niet (= contra&#45;) mag worden toegepast. ">
<path fill="#ffff99" stroke="black" d="M581.711,-44.8654C581.711,-44.8654 484.711,-44.8654 484.711,-44.8654 478.711,-44.8654 472.711,-38.8654 472.711,-32.8654 472.711,-32.8654 472.711,-20.8654 472.711,-20.8654 472.711,-14.8654 478.711,-8.86535 484.711,-8.86535 484.711,-8.86535 581.711,-8.86535 581.711,-8.86535 587.711,-8.86535 593.711,-14.8654 593.711,-20.8654 593.711,-20.8654 593.711,-32.8654 593.711,-32.8654 593.711,-38.8654 587.711,-44.8654 581.711,-44.8654"/>
<text text-anchor="middle" x="533.211" y="-23.1654" font-family="Roboto" font-size="14.00">Contra&#45;indicatie</text>
</a>
</g>
</g>
<!-- 2148&#45;&gt;1766 -->
<g id="edge49" class="edge"><title>2148&#45;&gt;1766</title>
<path fill="none" stroke="blue" d="M522.534,-44.9839C485.1,-108.508 359.661,-321.373 314.918,-397.301"/>
<polygon fill="none" stroke="blue" points="311.694,-395.877 309.633,-406.269 317.725,-399.431 311.694,-395.877"/>
</g>
<!-- 2181 -->
<g id="node41" class="node"><title>2181</title>
<g id="a_node41"><a xlink:title="E.g. voor palliatieve zorg of op een OK word een team van mensen gevormd. ">
<path fill="green" stroke="black" d="M1155.06,-708.811C1155.06,-708.811 1084.06,-708.811 1084.06,-708.811 1078.06,-708.811 1072.06,-702.811 1072.06,-696.811 1072.06,-696.811 1072.06,-684.811 1072.06,-684.811 1072.06,-678.811 1078.06,-672.811 1084.06,-672.811 1084.06,-672.811 1155.06,-672.811 1155.06,-672.811 1161.06,-672.811 1167.06,-678.811 1167.06,-684.811 1167.06,-684.811 1167.06,-696.811 1167.06,-696.811 1167.06,-702.811 1161.06,-708.811 1155.06,-708.811"/>
<text text-anchor="middle" x="1119.56" y="-687.111" font-family="Roboto" font-size="14.00">(Care) Team</text>
</a>
</g>
</g>
<!-- 1689 -->
<g id="node42" class="node"><title>1689</title>
<g id="a_node42"><a xlink:title="Persoon die beroepsmatig zorg verleent (in wat voor een vorm dan ook) uit hoofde van een bepaalde kwalificatie en/of goedkeuring hiertoe van een bevoegde instantie. ">
<path fill="#ffff99" stroke="black" d="M1063.07,-644.63C1063.07,-644.63 988.068,-644.63 988.068,-644.63 982.068,-644.63 976.068,-638.63 976.068,-632.63 976.068,-632.63 976.068,-620.63 976.068,-620.63 976.068,-614.63 982.068,-608.63 988.068,-608.63 988.068,-608.63 1063.07,-608.63 1063.07,-608.63 1069.07,-608.63 1075.07,-614.63 1075.07,-620.63 1075.07,-620.63 1075.07,-632.63 1075.07,-632.63 1075.07,-638.63 1069.07,-644.63 1063.07,-644.63"/>
<text text-anchor="middle" x="1025.57" y="-622.93" font-family="Roboto" font-size="14.00">Zorgverlener</text>
</a>
</g>
</g>
<!-- 1689&#45;&gt;1726 -->
<g id="edge40" class="edge"><title>1689&#45;&gt;1726</title>
<path fill="none" stroke="blue" d="M1016.92,-608.614C1005.83,-585.503 986.479,-545.198 973.566,-518.297"/>
<polygon fill="none" stroke="blue" points="976.61,-516.549 969.127,-509.049 970.299,-519.578 976.61,-516.549"/>
</g>
<!-- 1689&#45;&gt;2181 -->
<g id="edge41" class="edge"><title>1689&#45;&gt;2181</title>
<path fill="none" stroke="green" d="M1052,-644.679C1061.61,-651.241 1072.65,-658.78 1082.98,-665.835"/>
<polygon fill="none" stroke="green" points="1083.09,-665.908 1090.3,-665.989 1093,-672.676 1085.79,-672.595 1083.09,-665.908"/>
</g>
<!-- 1965&#45;&gt;1726 -->
<g id="edge42" class="edge"><title>1965&#45;&gt;1726</title>
<path fill="none" stroke="blue" d="M870.349,-462.966C883.943,-467.189 900.138,-472.221 915.023,-476.846"/>
<polygon fill="none" stroke="blue" points="913.987,-480.189 924.575,-479.814 916.064,-473.504 913.987,-480.189"/>
</g>
<!-- 2144 -->
<g id="node44" class="node"><title>2144</title>
<g id="a_node44"><a xlink:title=" ">
<path fill="#ffff99" stroke="black" d="M167.857,-303.763C167.857,-303.763 19.8565,-303.763 19.8565,-303.763 13.8565,-303.763 7.85654,-297.763 7.85654,-291.763 7.85654,-291.763 7.85654,-279.763 7.85654,-279.763 7.85654,-273.763 13.8565,-267.763 19.8565,-267.763 19.8565,-267.763 167.857,-267.763 167.857,-267.763 173.857,-267.763 179.857,-273.763 179.857,-279.763 179.857,-279.763 179.857,-291.763 179.857,-291.763 179.857,-297.763 173.857,-303.763 167.857,-303.763"/>
<text text-anchor="middle" x="93.8565" y="-282.063" font-family="Roboto" font-size="14.00">Behandelmogelijkheden</text>
</a>
</g>
</g>
<!-- 2144&#45;&gt;1723 -->
<g id="edge43" class="edge"><title>2144&#45;&gt;1723</title>
<path fill="none" stroke="blue" d="M129.406,-303.939C141.33,-311.62 153.697,-321.594 162.025,-333.587 189.618,-373.327 198.824,-430.203 201.895,-464.054"/>
<polygon fill="none" stroke="blue" points="198.419,-464.49 202.692,-474.185 205.397,-463.941 198.419,-464.49"/>
</g>
<!-- 1914 -->
<g id="node45" class="node"><title>1914</title>
<g id="a_node45"><a xlink:title="Specifieke vorm van Medisch beleid. ">
<path fill="#ffff99" stroke="black" d="M179,-236.083C179,-236.083 12,-236.083 12,-236.083 6,-236.083 8.52651e-014,-230.083 8.52651e-014,-224.083 8.52651e-014,-224.083 8.52651e-014,-212.083 8.52651e-014,-212.083 8.52651e-014,-206.083 6,-200.083 12,-200.083 12,-200.083 179,-200.083 179,-200.083 185,-200.083 191,-206.083 191,-212.083 191,-212.083 191,-224.083 191,-224.083 191,-230.083 185,-236.083 179,-236.083"/>
<text text-anchor="middle" x="95.5" y="-214.383" font-family="Roboto" font-size="14.00">Overdracht / transferbeleid</text>
</a>
</g>
</g>
<!-- 1914&#45;&gt;1723 -->
<g id="edge44" class="edge"><title>1914&#45;&gt;1723</title>
<path fill="none" stroke="blue" d="M149.681,-236.279C162.597,-243.157 174.967,-252.375 183.057,-264.563 223.847,-326.022 216.198,-418.218 208.908,-464.266"/>
<polygon fill="none" stroke="blue" points="205.409,-463.967 207.187,-474.412 212.31,-465.138 205.409,-463.967"/>
</g>
<!-- 1860&#45;&gt;1766 -->
<g id="edge50" class="edge"><title>1860&#45;&gt;1766</title>
<path fill="none" stroke="blue" d="M637.313,-36.2559C580.535,-101.393 387.766,-322.539 321.491,-398.57"/>
<polygon fill="none" stroke="blue" points="318.695,-396.451 314.762,-406.289 323.972,-401.05 318.695,-396.451"/>
</g>
<!-- 2196 -->
<g id="node47" class="node"><title>2196</title>
<g id="a_node47"><a xlink:title="Onbedoelde en ongewenste uitkomsten tijdens of volgend op het handelen van een zorgverlener, die voor de gezondheid van de patient zodanig nadelig zijn dat aanpassing van het medisch (be)handelen noodzakelijk is, dan wel dat er sprake is van onherstelbare schade. ">
<path fill="#ffff99" stroke="black" d="M793.771,-45.9145C793.771,-45.9145 724.771,-45.9145 724.771,-45.9145 718.771,-45.9145 712.771,-39.9145 712.771,-33.9145 712.771,-33.9145 712.771,-21.9145 712.771,-21.9145 712.771,-15.9145 718.771,-9.91454 724.771,-9.91454 724.771,-9.91454 793.771,-9.91454 793.771,-9.91454 799.771,-9.91454 805.771,-15.9145 805.771,-21.9145 805.771,-21.9145 805.771,-33.9145 805.771,-33.9145 805.771,-39.9145 799.771,-45.9145 793.771,-45.9145"/>
<text text-anchor="middle" x="759.271" y="-24.2145" font-family="Roboto" font-size="14.00">Complicatie</text>
</a>
</g>
</g>
<!-- 2196&#45;&gt;1766 -->
<g id="edge47" class="edge"><title>2196&#45;&gt;1766</title>
<path fill="none" stroke="blue" d="M738.294,-45.9853C663.996,-109.987 413.25,-325.984 327.742,-399.643"/>
<polygon fill="none" stroke="blue" points="325.286,-397.139 319.994,-406.317 329.855,-402.443 325.286,-397.139"/>
</g>
<!-- 2197 -->
<g id="node48" class="node"><title>2197</title>
<g id="a_node48"><a xlink:title="Weergave van het toedienen van anesthesie en verdere verloop van een operatie.&#10;Anesthesie= opheffen van gevoeligheid voor pijn door toedienen van medicijn. ">
<path fill="#ffff99" stroke="black" d="M163.572,-168.49C163.572,-168.49 52.5722,-168.49 52.5722,-168.49 46.5722,-168.49 40.5722,-162.49 40.5722,-156.49 40.5722,-156.49 40.5722,-144.49 40.5722,-144.49 40.5722,-138.49 46.5722,-132.49 52.5722,-132.49 52.5722,-132.49 163.572,-132.49 163.572,-132.49 169.572,-132.49 175.572,-138.49 175.572,-144.49 175.572,-144.49 175.572,-156.49 175.572,-156.49 175.572,-162.49 169.572,-168.49 163.572,-168.49"/>
<text text-anchor="middle" x="108.072" y="-146.79" font-family="Roboto" font-size="14.00">Anesthesieverslag</text>
</a>
</g>
</g>
<!-- 2197&#45;&gt;1723 -->
<g id="edge48" class="edge"><title>2197&#45;&gt;1723</title>
<path fill="none" stroke="blue" d="M131.597,-168.63C145.196,-178.152 163.058,-189.091 180.668,-195.248 183.528,-196.248 192.156,-194.648 194.2,-196.883 262.542,-271.596 231.091,-406.604 213.024,-464.716"/>
<polygon fill="none" stroke="blue" points="209.664,-463.731 209.939,-474.322 216.329,-465.871 209.664,-463.731"/>
</g>
<!-- 2197&#45;&gt;1695 -->
<g id="edge53" class="edge"><title>2197&#45;&gt;1695</title>
<path fill="none" stroke="lightgray" d="M131.597,-168.63C145.196,-178.152 163.058,-189.091 180.668,-195.248 183.528,-196.248 192.191,-194.617 194.2,-196.883 206.7,-210.985 195.269,-220.469 194.2,-239.283 188.309,-342.926 179.48,-368.209 167.732,-471.352 165.625,-489.859 170.797,-496.079 162.996,-512.993 158.896,-521.882 152.602,-530.231 145.946,-537.471"/>
<polygon fill="lightgray" stroke="lightgray" points="138.669,-544.864 142.477,-534.58 142.177,-541.3 145.684,-537.737 145.684,-537.737 145.684,-537.737 142.177,-541.3 148.891,-540.894 138.669,-544.864 138.669,-544.864"/>
<text text-anchor="middle" x="228.062" y="-367.231" font-family="Roboto" font-size="14.00">onderdeel van</text>
</g>
<!-- 2193 -->
<g id="node49" class="node"><title>2193</title>
<g id="a_node49"><a xlink:title="Informatie over ziekte en behandeling zoals deze wordt verstrekt aan de patiënt door een zorgverlener. ">
<path fill="#ffff99" stroke="black" d="M900.83,-73.9997C900.83,-73.9997 825.83,-73.9997 825.83,-73.9997 819.83,-73.9997 813.83,-67.9997 813.83,-61.9997 813.83,-61.9997 813.83,-49.9997 813.83,-49.9997 813.83,-43.9997 819.83,-37.9997 825.83,-37.9997 825.83,-37.9997 900.83,-37.9997 900.83,-37.9997 906.83,-37.9997 912.83,-43.9997 912.83,-49.9997 912.83,-49.9997 912.83,-61.9997 912.83,-61.9997 912.83,-67.9997 906.83,-73.9997 900.83,-73.9997"/>
<text text-anchor="middle" x="863.33" y="-52.2997" font-family="Roboto" font-size="14.00">Patientfolder</text>
</a>
</g>
</g>
<!-- 2193&#45;&gt;1766 -->
<g id="edge52" class="edge"><title>2193&#45;&gt;1766</title>
<path fill="none" stroke="blue" d="M835.724,-74.0224C742.616,-134.809 440.108,-332.302 335.153,-400.822"/>
<polygon fill="none" stroke="blue" points="333.239,-397.892 326.779,-406.289 337.065,-403.753 333.239,-397.892"/>
</g>
<!-- RDZ_239 -->
<g id="node50" class="node"><title>RDZ_239</title>
<g id="a_node50"><a xlink:title="Nog door de behandelend arts te valideren informatie verkregen van de pati?nt als resultaat van zijn eigen zorgproces bijvoorbeeld meting, dagboek, foto, etc. Dit kan worden verkregen uit bijvoorbeeld ingevulde vragenlijsten of een persoonlijk gezondheidsdossier. ">
<path fill="#ffff99" stroke="black" d="M1044.71,-118.034C1044.71,-118.034 873.705,-118.034 873.705,-118.034 867.705,-118.034 861.705,-112.034 861.705,-106.034 861.705,-106.034 861.705,-94.0342 861.705,-94.0342 861.705,-88.0342 867.705,-82.0342 873.705,-82.0342 873.705,-82.0342 1044.71,-82.0342 1044.71,-82.0342 1050.71,-82.0342 1056.71,-88.0342 1056.71,-94.0342 1056.71,-94.0342 1056.71,-106.034 1056.71,-106.034 1056.71,-112.034 1050.71,-118.034 1044.71,-118.034"/>
<text text-anchor="middle" x="959.205" y="-96.3342" font-family="Roboto" font-size="14.00">Zelfmanagementinformatie </text>
</a>
</g>
</g>
<!-- RDZ_239&#45;&gt;1766 -->
<g id="edge55" class="edge"><title>RDZ_239&#45;&gt;1766</title>
<path fill="none" stroke="blue" d="M895.228,-118.039C880.148,-122.316 864.135,-126.883 849.269,-131.176 772.999,-153.198 750.137,-148.64 677.913,-181.592 539.716,-244.644 392.892,-351.966 330.198,-399.994"/>
<polygon fill="none" stroke="blue" points="327.709,-397.493 321.92,-406.367 331.979,-403.04 327.709,-397.493"/>
</g>
<!-- RDZ_297 -->
<g id="node51" class="node"><title>RDZ_297</title>
<g id="a_node51"><a xlink:title="Plaats of ruimte ">
<path fill="#ffff99" stroke="black" d="M1181.79,-628.153C1181.79,-628.153 1142.79,-628.153 1142.79,-628.153 1136.79,-628.153 1130.79,-622.153 1130.79,-616.153 1130.79,-616.153 1130.79,-604.153 1130.79,-604.153 1130.79,-598.153 1136.79,-592.153 1142.79,-592.153 1142.79,-592.153 1181.79,-592.153 1181.79,-592.153 1187.79,-592.153 1193.79,-598.153 1193.79,-604.153 1193.79,-604.153 1193.79,-616.153 1193.79,-616.153 1193.79,-622.153 1187.79,-628.153 1181.79,-628.153"/>
<text text-anchor="middle" x="1162.29" y="-606.453" font-family="Roboto" font-size="14.00">Locatie</text>
</a>
</g>
</g>
<!-- RDZ_297&#45;&gt;1684 -->
<g id="edge36" class="edge"><title>RDZ_297&#45;&gt;1684</title>
<path fill="none" stroke="blue" d="M1149.77,-592.113C1136.61,-573.16 1115.77,-543.145 1100.71,-521.437"/>
<polygon fill="none" stroke="blue" points="1103.42,-519.207 1094.84,-512.988 1097.67,-523.198 1103.42,-519.207"/>
</g>
</g>
</svg>
